<svg data-name="Layer 1" viewBox="0 0 1000 1000" xmlns="http://www.w3.org/2000/svg"><path d="M410.16 411.51c6.9-18.91 20-35.07 35.07-48.41 10.23-9.05 21.68-17.09 34.72-21.16s27.85-3.82 39.69 3c14.16 8.12 22 23.9 27.39 39.28 2.4 6.76 4.52 13.71 4.87 20.88a55.89 55.89 0 0 1-3.9 22.18 77.66 77.66 0 0 1-119.8 34.59" fill="#ffffff" class="fill-acfddf"></path><path d="M412.44 412.14c9.36-22.19 27.33-41.32 47.1-54.77 19-12.94 46.76-20.08 64.6-1.15 7.39 7.84 12 18.37 15.46 28.43 4.16 11.94 6.5 23.27 3 35.69-5.72 20.07-21.44 37.13-40.65 45.14-23 9.58-50.55 5.53-71-8.27-5-3.39-11.31 4.57-6.54 8.47 21 17.15 48.81 23.3 75 15.6a86.22 86.22 0 0 0 54.24-48.42c5.88-13.89 7.3-28.4 2.93-42.93-3.89-12.94-9.38-25.95-17.9-36.54-18-22.44-47.82-23.72-72.1-11-13.9 7.28-26.06 18.27-36.31 30a111.68 111.68 0 0 0-22.38 38.45c-1 3 3.42 4 4.56 1.26Z" fill="#1a1c3f" class="fill-1a1c3f"></path><path d="M463.2 476.6a423.31 423.31 0 0 1 88.94-98.18c6.18-5 14.44-10 21.51-6.41 4.12 2.1 6.39 6.56 8.35 10.75 14.82 31.55 28 64.16 34.55 98.4s6.16 70.39-5.68 103.17-35.92 61.89-68 75.61-71.87 10.23-98.54-12.23" fill="#a8cdf7" class="fill-ffffff"></path><path d="M553.37 380.53c5.52-4.13 14.53-10.39 20.86-4.36 5 4.8 7.3 13.62 9.94 19.86 6.12 14.45 12 29.06 17.05 43.93 10 29.77 16.48 60.89 15.23 92.43-1.14 28.66-8.88 57-25.09 80.87-14.39 21.18-35.54 38.84-60.41 46-28.1 8.06-59.85 3.33-82.75-15.4-5.4-4.42-13.2 3.21-7.75 7.75 22.46 18.73 52.74 24.79 81.2 19.64 28.63-5.17 53.62-22.5 71.23-45.27 41.89-54.14 37.22-127.63 15.94-189.06a462.41 462.41 0 0 0-23.55-55c-3-6.12-6.78-12.52-14.11-13.78-7.85-1.35-15.06 3.85-20.76 8.54-2.13 1.75.74 5.53 3 3.85ZM463.2 479.05c3.15 0 3.16-4.9 0-4.9s-3.17 4.9 0 4.9ZM500 975c2.27-65.23 6.57-143.7 19.29-207.72.52-2.6 19.68 3 21.48 1.05s4.56-2.8 7.18-3.46c35.46-9 72.75-6.13 109.23-3.15l186.17 15.22c15.09 1.24 31.38 3 42.51 13.23 8 7.33 12 17.9 15.41 28.17a561.35 561.35 0 0 1 28.61 154.79" fill="#1a1c3f" class="fill-1a1c3f"></path><path d="M502.45 975c2-49.07 4.79-98.18 10.81-147q2.28-18.48 5.49-36.83 1.43-8.24 3.06-16.45a15.53 15.53 0 0 0 .65-3.23c-.39-2.66 1.78-1.26-1.52-1a20.6 20.6 0 0 1 4.56.37c5 .72 12.49 3.52 17.3.87 2.18-1.2 3.71-2.37 6.22-3 3-.81 6.13-1.46 9.22-2.06a193.22 193.22 0 0 1 21.3-2.88c25.86-2.12 51.85 0 77.64 2.13l83.18 6.83 83.19 6.83c22 1.81 52.43-.12 65.63 21.47 7 11.49 10.42 25.55 14.19 38.36q6.43 21.91 11.08 44.3c6.13 29.56 10.47 59.2 12 89.38.23 4.41 7.07 4.46 6.9 0-2-55-10.73-111.24-30.33-162.88-4-10.66-9.56-20.63-19.21-27.16-9.34-6.32-20.77-8.41-31.77-9.64-28.52-3.2-57.3-4.77-85.91-7.1L679 759.25c-28-2.28-56.2-5.35-84.36-4.54a226.37 226.37 0 0 0-40.38 4.53c-5 1.06-10.09 2-14.51 4.71-1.26.77-.43.86-2.59.7-1.84-.14-3.68-.48-5.5-.77-4.61-.74-13.91-3.71-16.17 2.35-1.83 4.93-2 11.15-2.83 16.33-1 6.49-2 13-2.86 19.51-7.69 57.32-10.54 115.16-12.22 172.93-.1 3.16 4.77 3.15 4.9 0Z" fill="#1a1c3f" class="fill-1a1c3f"></path><path d="M694.76 588.91c4.86 10.72 6.32 22.66 6.7 34.42a204.34 204.34 0 0 1-53.2 143.2c-17.17 18.67-38.78 34.45-63.69 39.21s-53.31-3.51-67.59-24.48c-5.81-8.54-9-18.58-11.35-28.65a190.4 190.4 0 0 1-4.84-39.94" fill="#ffffff" class="fill-acfddf"></path><path d="M692.65 589.5c5.43 13.39 6 27.72 5.65 42a198.07 198.07 0 0 1-4.71 38.66 203.21 203.21 0 0 1-31.1 71.05c-26 37.57-76.39 78.37-123.81 52-27.45-15.29-31.83-52.07-32.54-80.49-.17-6.87-10.81-6.91-10.71 0a192.21 192.21 0 0 0 6.5 48.13c3.73 13.5 10.07 26.39 21 35.53 20 16.8 48 20.3 72.54 12.45 27-8.66 49-28.49 66.07-50.55a208.55 208.55 0 0 0 36.87-75.77 206 206 0 0 0 6.38-46.08c.39-16.43-1.09-33.51-8.09-48.57-1-2.23-4.95-.62-4 1.69Z" fill="#1a1c3f" class="fill-1a1c3f"></path><path d="M67.5 975c1.31-66 26.09-139.41 68.71-189.11 4.4-5.12 9-10.15 14.7-13.77 7.76-5 16.93-7 25.94-8.75 99.44-19.12 201.78-9.71 302.54-.23 1.78.17 3.67.38 5 1.55 1.63 1.39 2.05 3.73 2.35 5.87 9.66 67.62 14.49 127.15 27 204.44" fill="#fcfffe" class="fill-3fc091"></path><path d="M69.86 975a322.84 322.84 0 0 1 33.85-131.58c9.94-19.9 22.06-38.9 36.86-55.55 8.7-9.79 18-15.58 30.78-18.52 13.09-3 26.5-5 39.81-6.71 53-6.86 106.72-6.57 160-3.5 27.12 1.57 54.19 3.86 81.23 6.34l19.29 1.8c1.74.16 7.67-.16 9.08 1 1.86 1.47 1.73 6.63 2 8.77q2.47 17.63 4.9 35.27c7.51 54.58 13.51 109.35 22.41 163.74.78 4.82 8.08 2.76 7.32-2-8.17-51.36-13.93-103-19.69-154.66-1.35-12.15-2.71-24.3-4.36-36.42-.76-5.56-.82-12.19-2.82-17.47-1.9-5-6.18-6.63-11.17-7.17-28.24-3.06-56.65-5.28-85-7.29-56.5-4-113.43-5.54-169.84.54-13.85 1.49-27.66 3.41-41.37 5.85-12.32 2.19-25.58 4.23-36.06 11.59-9.44 6.63-16.68 16.34-23.51 25.5a261.62 261.62 0 0 0-18.77 29.16A319.68 319.68 0 0 0 65.13 975c0 3 4.62 3 4.73 0Z" fill="#1a1c3f" class="fill-1a1c3f"></path><path d="M587.56 100.58c-.54 8.56-1.08 17.22.24 25.7 3.06 19.78 15.92 37.21 17.12 57.2.14 2.33.23 4.94 1.9 6.51 2.65-2.16 4.21-5.4 5.54-8.59a194 194 0 0 0 6.85-20.59c5-17.59 9.57-35.47 10.87-53.76a36.86 36.86 0 0 0-.56-11.63c-.95-3.77-3.12-7.37-6.46-9.21" fill="#ffffff" class="fill-acfddf"></path><path d="M585.41 100.58c-.75 8.55-1.45 17.13-.41 25.7.94 7.73 3.28 15.13 5.92 22.43s5.74 14.47 7.81 22a61.44 61.44 0 0 1 2.17 12c.24 3.37.3 6.59 2.42 9.38 1.62 2.13 4.24 2.73 6.36.82 6.69-6 9.36-16.51 11.91-24.81 3.22-10.47 6.16-21 8.52-31.75a189.74 189.74 0 0 0 4.58-30.91c.48-8.95-1.34-18-9.32-23.12-5-3.19-9.58 4.75-4.62 7.9 7.09 4.51 5.06 15.53 4.33 22.55a212.91 212.91 0 0 1-4.74 26.78c-2 8.53-4.32 17-6.82 25.38-2.14 7.17-3.94 16.95-9.56 22.26h5.72c-1.71-2.14-1.29-8.51-1.82-11.26a76.91 76.91 0 0 0-2.54-9.56c-2.19-6.65-5-13.07-7.77-19.49-2.95-6.86-5.72-13.91-7.06-21.29-1.49-8.21-1.09-16.66-.78-25 .1-2.8-4.07-2.72-4.3 0Z" fill="#1a1c3f" class="fill-1a1c3f"></path><path d="M664.91 374.21c-1.62-15.4-6.25-54.08-12.08-73.43-15.06.53-29.28-8.66-38-21s-12.62-27.31-14.83-42.21a222 222 0 0 1-2.24-43.64c.48-10 1.63-20 1.85-30.06.42-18.93-2.48-37.8-2.22-56.73s4.13-38.7 16.2-53.28c11.14-13.47 28.17-21 45.39-24 27.55-4.8 59.54-4.75 82.94 12.74 16.49 12.32 25.36 32.44 29.86 52 11.56 50.15 6.44 106.17 7.45 157.34.65 32.9 6.76 74.54 11.74 108.92" fill="#fcfffe" class="fill-3fc091"></path><path d="M779.2 251.93c-1-51.17 4.11-107.19-7.45-157.34-4.5-19.57-13.37-39.69-29.86-52-12.51-9.35-27.48-13.71-42.91-15-6.14.46-12.2 1.26-18.05 2.28-17.23 3-34.25 10.55-45.4 24-12.07 14.58-15.93 34.35-16.19 53.28s2.64 37.8 2.22 56.73c-.22 10-1.38 20-1.85 30.06a222.74 222.74 0 0 0 2.23 43.64c2.25 14.9 6.18 29.95 14.89 42.25s22.91 21.49 38 21c5.56 18.45 10 54.47 11.84 71.13l104.3-11.06c-4.97-34.43-11.12-76.07-11.77-108.97Z" fill="#5cd1ff" class="fill-22906c"></path><path d="M667 374.21c-1.3-24.9-3.26-50.46-10.32-74.49a4 4 0 0 0-3.82-2.91c-24 .3-39.3-21.3-45.3-42.19-7-24.55-6.95-50.47-5.27-75.72a308.62 308.62 0 0 0-.07-40.46c-.83-12.85-1.89-25.75-1-38.63 1.61-23.38 10.64-45.32 31.88-57.14 18.81-10.47 43-12.87 64.19-11.38 22.19 1.57 43.57 10.41 56.33 29.34s16.94 42.83 19.38 65.21c2.75 25.18 2.68 50.57 2.39 75.86-.31 26.91-.81 53.74 1.56 80.57 2.35 26.59 5.66 53.32 10.32 79.6.75 4.21 8 3.29 7.54-1-2.93-26-7.31-51.7-9.68-77.72-2.32-25.58-2.07-51.14-1.78-76.79.3-27.75.54-55.62-2.75-83.22-2.75-23.11-7.16-47.54-20.65-67.07-13.33-19.29-34.27-29.29-57.16-32-21.91-2.57-46.85-.18-67.1 8.89-22.12 9.92-35.64 29.31-39.87 52.9-4.88 27.19 1.56 54.47.24 81.77-.76 15.79-2.71 31.38-2.09 47.23.58 14.54 2.32 29.48 6.52 43.45 7.14 23.78 25.36 46.87 52.37 46.44l-3.86-2.92c3.69 12.41 5.77 25.36 8 38.11 2 11.6 4.11 23.19 6 34.82.36 2.3 4.17 1.76 4.05-.55Z" fill="#1a1c3f" class="fill-1a1c3f"></path><path d="M688.41 294.59c-12.43 1.48-25.24.73-37.62 2.91-3.67.64-2.6 6.12.85 6.26 12.63.51 25-3 37.3-5.2 2.22-.4 1.74-4.24-.53-4ZM617.8 167.51c.49.07 1.14.26 1.33.75.09.22 0 .33-.08.5 0-.14-.34.23 0 .09l3.09 1.26c-.11-.19 0-.43-.16-.15a3 3 0 0 0-1.42-4.22 3 3 0 0 0-4 1.92 6.27 6.27 0 0 0 1.29 5.76 2.75 2.75 0 0 0 3.32.43 5.79 5.79 0 0 0 2.7-6.54 5.17 5.17 0 0 0-6.05-3.53c-1.81.33-1.88 3.47 0 3.73ZM673.06 160.41c1.94.21 2 2.31.43 3l3.75 1c-.12-.21-.37-.63-.25-.91.7-1.62.37-3.46-1.42-4.21a3 3 0 0 0-4 1.92 6.76 6.76 0 0 0 1 6 2.82 2.82 0 0 0 3.74 1 6.58 6.58 0 0 0 3.14-7.42 6 6 0 0 0-6.84-4.09 1.92 1.92 0 0 0-1.39 2.12 2 2 0 0 0 1.9 1.67ZM609.8 147.14c3.13-2.77 9.24-2 13-2.37 5-.53 5.25-8.3 0-8a40 40 0 0 0-11.46 2.55c-2.75 1-4.93 2.47-5.82 5.37-.8 2.57 2.44 4.07 4.24 2.48ZM684.23 137.41a1.89 1.89 0 0 0 0-3.78 1.89 1.89 0 0 0 0 3.78Z" fill="#1a1c3f" class="fill-1a1c3f"></path><path d="M683.3 133a59 59 0 0 0-26.72-1.89c-5.45.94-3.21 9.6 2.32 8.41 7.9-1.7 15.75-2.83 23.84-2.38 2.41.13 2.8-3.5.56-4.14ZM630.85 153.73c.5 7.38 1.11 14.76 1.51 22.15.06 1.29.5 3.13-.3 3.76-.48.38-2.35.26-3 .46a10.84 10.84 0 0 0-5.72 4.38c-2.82 4.09-3.34 10.87-2.11 15.63 1.46 5.66 8.41 8.51 13.21 10.59 4.65 2 8.68-4.86 4-6.85-2.67-1.14-5.9-2.38-8.17-4.26s-1.87-5-1.49-7.68c.25-1.74.59-4.06 2.41-5 .86-.43 2.26-.16 3.23-.37a5.49 5.49 0 0 0 4.05-2.83c1.73-3.47 0-8.71-.5-12.34-.86-6.11-1.86-12.16-3.15-18.2-.47-2.2-4.12-1.75-4 .54ZM643.26 243.64c14.32 4.47 31.5-2.24 41.56-12.64 3.24-3.36-1.88-8.49-5.13-5.13-10 10.39-21.86 13.37-35.87 13.63a2.12 2.12 0 0 0-.56 4.14Z" fill="#1a1c3f" class="fill-1a1c3f"></path><path d="M678.35 223a14.75 14.75 0 0 0 3.37 7.09c2.16 2.5 6-1.28 3.65-3.65a12.48 12.48 0 0 1-3-4.54 2.07 2.07 0 0 0-4 1.1ZM639.16 239.52a7.23 7.23 0 0 0 0 1.14c.05.4.13.79.2 1.18a2.32 2.32 0 1 0 4.25-1.79 6.25 6.25 0 0 0-.57-1c-.22-.29-.45-.57-.68-.86a1.66 1.66 0 0 0-.83-.48 1.86 1.86 0 0 0-1.23.09 1.89 1.89 0 0 0-1.16 1.73Z" fill="#1a1c3f" class="fill-1a1c3f"></path><path d="M709.23 70.19c-2.8 16.84-5.29 35.38 3.65 49.92 4.34 7 11 12.35 16.57 18.43s10.5 13.73 10 22c-.16 2.53-.43 5.81 1.88 6.86 1.69.76 3.74-.45 4.6-2.09s.9-3.58 1-5.43c.63-8.45 5.64-17.92 14.09-18.53 4.59-.33 9.11 2.24 11.78 6a20.92 20.92 0 0 1 3.45 13.11 29 29 0 0 1-12 22l13.54 16.69c7.31-40.89 5.8-82.78 4.27-124.29" fill="#a8cdf7" class="fill-ffffff"></path><path d="M730.59 126.21c4.34 7 10.95 12.35 16.57 18.43 1.15 1.25 2.27 2.57 3.32 4 2.41-4 6-6.91 10.56-7.24s9.11 2.24 11.78 6a17 17 0 0 1 1 1.62 11.47 11.47 0 0 1 4.91-1.5 11.7 11.7 0 0 1 4.2.48c.83-22.65.11-45.43-.71-68.12l-55.31-3.52c-2.77 16.77-5.26 35.31 3.68 49.85Z" fill="#ffffff" class="fill-acfddf"></path><path d="M707.11 69.6C704 85.75 701 103.48 708.37 119c3.73 7.86 10.12 13.75 16.06 19.92a47.57 47.57 0 0 1 8.51 11.08c2.22 4.37 2.24 8.11 2.35 12.84.14 6.26 5.85 11.85 11.83 7.1 5.55-4.4 3.18-13.31 6.73-19.14 5.53-9.1 16.17-5 18.11 4.6 1.8 8.89-2.61 18.32-9.71 23.65a4 4 0 0 0-.8 6.18L775 201.88c1.78 2.19 6.05 1.05 6.53-1.72 7.21-41.46 5.87-83.49 4-125.33-.2-4.53-7.21-4.57-7.07 0 1.23 41.09 2.68 82.58-4.51 123.25l6.53-1.73q-6.69-8.35-13.48-16.7l-.8 6.18c10.2-7.62 16.4-20.53 13.23-33.31-3-12-16.82-20.05-27.49-11.64-4.19 3.3-6.86 8.33-8.15 13.45-.55 2.15-1.71 6.44-1.27 8.62.48 2.4.88-.41.89-1.29a37 37 0 0 0-.17-5.47c-2.09-15-15.44-23.25-24.46-33.95-12.13-14.38-9.87-34.16-7.46-51.47.38-2.72-3.69-4-4.23-1.17Z" fill="#1a1c3f" class="fill-1a1c3f"></path><path d="M761 155.88a9.07 9.07 0 0 0-3.06 6.86c0 3.35 5.4 3.3 5.16 0a4.2 4.2 0 0 1 1.25-3.51c2.18-2.18-1.06-5.31-3.35-3.35ZM735.32 43.18c-12.17 15.29-28.88 26.52-46.77 34.38s-37 12.53-56.16 16.35c-12.49 2.5-25.26 4.66-37.92 3.22s-25.36-6.91-33-17.15c20.6-25.24 52-39.3 83.49-47.65 18.44-4.89 37.5-8.15 56.55-7.15 10.39.55 21.38 2.68 28.92 9.84a7 7 0 0 0 2.12 1.6 7.3 7.3 0 0 0 3 .2c13-.74 23.78 9.13 32.94 18.32l10 10c5 5 10.45 11.7 8.15 18.41-2.37 6.93-11.26 8.75-18.57 8.62a99.19 99.19 0 0 1-63.77-25.11" fill="#1a1c3f" class="fill-1a1c3f"></path><path d="M733.71 41.57c-20.16 24.05-49.35 36-79 43.61-15.8 4-32.43 8.1-48.79 8.63-15 .48-31.45-3.32-41-15.76l-.6 4.64c14-16.81 32.62-28.73 52.74-37 21.25-8.71 44.52-14.86 67.46-16.44 11.31-.77 23.82-1.08 34.56 3.14a28.27 28.27 0 0 1 7.55 4.35c1.48 1.21 2.71 2.75 4.54 3.46 2 .77 4 .44 6.09.5a24.23 24.23 0 0 1 9.64 2.3c9.73 4.5 17.15 13.1 24.57 20.56 3.86 3.88 8.64 7.81 10.91 12.91 2.71 6.1-1.69 9.82-7.27 11-11 2.35-24.12-.84-34.56-4.31a92.92 92.92 0 0 1-33-19.28c-4.25-3.84-10.6 2.55-6.28 6.29 18.59 16.08 43.4 26.68 68.28 26.14 9.15-.2 20.49-3.73 21.71-14.3 1.41-12.25-12.2-22.14-19.79-29.71C763 44 753.42 35 741.24 33.18c-2.46-.36-5.74.17-8-1-2.46-1.24-4.52-3.73-7-5.1a50.38 50.38 0 0 0-17.35-5.2c-26.71-3.58-55.09 2.81-80.34 11.23-26.4 8.8-51.78 22.38-69.73 44.12a4 4 0 0 0 0 5.41c22 28.29 63.92 17.85 93.35 10.62 32-7.86 64-22 84.77-48.51 1.77-2.26-1.31-5.51-3.22-3.23Z" fill="#1a1c3f" class="fill-1a1c3f"></path><path d="M881 365.15c-60.88-19.23-131.57-24.32-195.4-25.15-45.24-.62-93.94 4.83-128.11 34.5C522 405.29 510.31 455.18 506.3 502a582.54 582.54 0 0 0 9.15 163.52c4.8 24 11.14 48.58 6.65 72.65-1.08 5.74-2.77 11.53-2 17.32 1.3 10 9.49 17.57 17.87 23.13 42.17 27.92 97.35 34.45 146.57 39.16C738.58 823 932 839.92 924.61 744.52c-6.74-87.57 16-175 14-262.8-1-41-5.31-91.06-50.77-109.81" fill="#a8cdf7" class="fill-ffffff"></path><path d="M575.43 500.44a802 802 0 0 1-.34-81c.11-2.5.27-5.12 1.54-7.28 1.81-3.07 5.41-4.53 8.8-5.63 30.42-9.89 63.26-7.76 95.16-5.52 8.51.6 18.1 1.75 23.27 8.54 3.52 4.64 4.07 10.83 4.27 16.65.57 16.16-.44 32.42 1.51 48.47 1 8.37 2.82 16.92.93 25.13-2.84 12.35-14.74 22-27.41 22.2" fill="#fcfffe" class="fill-3fc091"></path><path d="M574.2 487.66c2.41-3.47 1.41-8.14 1.55-12.36s3.06-9.35 7.19-8.44c4.62 1 6.69 9 11.2 7.53 2.23-.71 3-3.39 3.91-5.55 2.09-4.91 8.92-8.6 12.65-4.78 2.13 2.18 2.48 6.13 5.33 7.2 2.38.89 5-1 6.33-3.11s2.13-4.71 3.89-6.55a8.12 8.12 0 0 1 11.33.11c2.48 2.67 3.11 7 6.34 8.73 3.53 1.84 7.76-.76 10.43-3.72s5.14-6.59 9-7.5a7.86 7.86 0 0 1 8.57 4c.85 1.71 1.13 3.81 2.6 5 3.12 2.61 7.5-1.17 9.6-4.65s5.76-7.67 9.36-5.77c2.75 1.46 3.77 6.06 6.88 5.81s4.49-5.5 7.52-4.78a154.44 154.44 0 0 1 4 21.88c.56 5.1.8 10.53-1.58 15.08-2.92 5.58-9.07 8.56-14.87 11a330.21 330.21 0 0 1-43.31 14.75c-10.34 2.74-21.15 5-31.69 3.12-9.54-1.68-18.15-6.6-26.54-11.44" fill="#5cd1ff" class="fill-22906c"></path><path d="M575.17 488.23a14.53 14.53 0 0 0 2.12-8.08 33.52 33.52 0 0 1 .22-5.93c.73-3.69 3.29-6.69 7.24-4.28 3.42 2.08 4.74 7.78 9.87 6.23 2-.62 3.18-2.37 4.09-4.16 1.65-3.21 5.79-10.81 10.67-6.63 2 1.72 2.21 4.94 4.36 6.68a5.79 5.79 0 0 0 5.76.85 9.87 9.87 0 0 0 4.88-4.47c1.06-1.76 1.7-4.05 3.22-5.49a6.33 6.33 0 0 1 8.62.12c3.78 3.67 3.92 10.26 10.7 9.89 8-.44 9.91-10.48 17-11.84 7.86-1.51 6.28 11.7 14.59 9.79 2.74-.63 5-3 6.62-5.13 1.26-1.68 2.62-4.93 4.73-5.72 2.8-1.05 4.35 1.58 5.84 3.2s3.32 2.86 5.7 2.29 4.28-4.68 6.53-4.55l-2.07-1.57a153.08 153.08 0 0 1 3.66 20.39c.7 6.72 1 13.81-4.38 18.78-4.25 3.94-10.35 5.95-15.62 8-6.2 2.47-12.48 4.76-18.84 6.79-12.5 4-25.8 8.32-39 8.91-13.9.62-24.31-5.76-36.29-11.63a2.94 2.94 0 0 0-3 5.07c11.62 7.76 25.06 13.34 39.25 12.43 15.59-1 31.11-6.65 45.73-11.84 6.94-2.46 13.86-5.08 20.6-8.05 5-2.2 10-4.91 13.22-9.48 3.72-5.33 3.68-11.89 3-18.1a162.93 162.93 0 0 0-4.19-22.41 2.19 2.19 0 0 0-2.06-1.58c-2.11-.1-3.45.87-4.9 2.31s-2.09 2.85-4.22 1.47c-1-.66-1.68-2.28-2.59-3.14-4.24-4-9.16-1-12.18 2.88-1 1.32-2.43 4.88-4 5.28-1 .25-5.25-1.44-5.77-2a22.75 22.75 0 0 1-1.24-2.41 10 10 0 0 0-6.57-4c-7.55-1.09-10.39 6.34-15.54 10-3 2.14-5.93 2.26-8.43-1.2-1-1.34-1.44-3-2.42-4.33a9.76 9.76 0 0 0-6.31-4.07c-7.15-1.29-9.29 4-12.6 8.92-4.35 6.48-5.91.21-8.35-2.9a7.36 7.36 0 0 0-6.14-3 11.24 11.24 0 0 0-6.64 2.76c-2.44 2-2.84 4.56-4.57 7-3.45 4.81-6.63-2-9.32-3.87a6.53 6.53 0 0 0-6.32-1c-8.69 3.58-3.53 15.24-6.52 21.59a1.12 1.12 0 0 0 1.93 1.13Z" fill="#5cd1ff" class="fill-22906c"></path><path d="M577.92 500.44c-.83-23.71-.55-47.44.39-71.14.17-4.3-.83-12.4 2.08-15.91s9.79-4.45 14-5.53a165.55 165.55 0 0 1 33.45-4.72c10.8-.49 21.62-.23 32.41.32 10.08.52 21 .24 30.85 2.72 4.39 1.11 8.53 3.12 10.79 7.23 2.73 4.94 2.49 11.18 2.62 16.65.25 11.32-.11 22.66.51 34 .64 11.76 5.11 25.28 1.41 36.79a25.69 25.69 0 0 1-23.27 17.37c-4.88.17-4.88 7.85 0 7.59a34 34 0 0 0 25.34-13.29c6.91-9 7.19-19.77 5.8-30.63a320.48 320.48 0 0 1-2.23-40.15c0-10.83 1.79-25.25-5.27-34.44-6.19-8-16.78-9.32-26.21-10-12.94-1-25.91-1.8-38.89-1.9a213.94 213.94 0 0 0-38.58 2.9 123.83 123.83 0 0 0-18.69 4.62c-4.24 1.45-8.65 3.35-11 7.4-3.1 5.32-2.19 13.16-2.35 19-.23 7.91-.32 15.81-.21 23.72q.33 23.73 2.07 47.42c.23 3.17 5.11 3.24 5 0Z" fill="#1a1c3f" class="fill-1a1c3f"></path><path d="M504 502a582.86 582.86 0 0 0 6.13 155c4.41 25.06 12.18 50.72 8.6 76.39-1.54 11-5.26 21.29.3 31.88 4.77 9.1 13.78 15.23 22.34 20.4 37.64 22.76 82.42 29.87 125.45 34.52 22.88 2.48 45.82 4.52 68.8 5.57 26.92 1.24 54 1.23 80.82-1.41 25.16-2.49 51.08-6.92 73.89-18.34 18.69-9.36 34.48-24.9 37.8-46.28 1-6.4.76-12.61.32-19-.88-13.08-1.13-26.2-.91-39.3.43-25.95 2.66-51.83 5.28-77.64 5-49.86 11.38-99.74 9.46-150-1.23-32.26-5.69-69.23-31.33-92a76.7 76.7 0 0 0-22.17-13.49c-3.86-1.57-6.71 5.1-2.86 6.78A70.53 70.53 0 0 1 921.8 409c7.3 14.79 10.19 31.53 11.6 47.83 3.84 44.72-.6 89.82-5.29 134.3-5.23 49.62-11.25 99.55-7.91 149.53.72 10.82.52 21.29-4.49 31.19A55.73 55.73 0 0 1 897 792.47c-19.27 13.14-43.31 18.47-66 21.74-25.9 3.73-52.26 4.29-78.38 3.7-20.84-.47-41.63-1.86-62.38-3.77-38.66-3.57-78.06-7.59-114.69-21.25a180.4 180.4 0 0 1-28.55-13.5c-8.69-5.12-19.49-11.64-22.32-22.06-1.47-5.45 0-11 1.07-16.33a102 102 0 0 0 1.93-17.68c.22-12-1.57-23.88-3.82-35.58-4.72-24.59-10.07-48.88-13-73.78a584.4 584.4 0 0 1-3.86-75.28q.24-18.36 1.63-36.67c.22-2.94-4.29-2.89-4.56 0ZM881.6 363c-44.32-15.37-90.5-21.91-137.15-25-22.72-1.5-45.58-2.36-68.36-2.17-20.55.18-41.28 1.77-61.31 6.52-21.6 5.12-43.45 14.31-59.91 29.55-3.58 3.32 1.6 8.13 5.25 5.24 32.32-25.56 72.49-32.44 112.78-33a842.41 842.41 0 0 1 133.91 8.61c24.77 3.67 49.43 7.86 73.57 14.63 2.86.8 4-3.45 1.22-4.4Z" fill="#1a1c3f" class="fill-1a1c3f"></path><path d="M465.31 477.84a643.94 643.94 0 0 1 46.1-56.16c19.86-21.6 41.9-41.77 67.6-56.22a129.31 129.31 0 0 1 43.24-15c7-1.12 4-11.53-2.91-10.58-28.44 3.94-54.72 21.91-76.26 39.88-22.78 19-43.1 40.82-61.25 64.24a292.83 292.83 0 0 0-20.75 31.4c-1.64 2.78 2.41 5 4.23 2.48Z" fill="#1a1c3f" class="fill-1a1c3f"></path><path d="M457.32 417.7c43.59 27.35 73.87 71 102.93 113.51 2.13 3.13 4.33 6.4 4.83 10.16.41 3.13-.41 6.29-1.38 9.3a94.15 94.15 0 0 1-39.78 50.79c-3.69 2.28-7.65 4.34-12 4.91a30.27 30.27 0 0 1-9.67-.61A85.11 85.11 0 0 1 466.93 590" fill="#5cd1ff" class="fill-22906c"></path><path d="M456.77 418.64c31.77 20.94 56.5 50.25 78.37 81q8.22 11.57 16.17 23.33c2.48 3.66 5 7.29 7.41 11 3.64 5.66 4 10.23 1.84 16.62A92 92 0 0 1 530.42 593a62.57 62.57 0 0 1-13.52 8.51c-6.16 2.64-12.41 1.54-18.7-.08a90.28 90.28 0 0 1-29.77-14c-2.72-2-6.29 2.6-3.61 4.68 14.75 11.42 38.85 23.72 57.2 14.16 16.84-8.77 30.84-24.39 39.17-41.3 3.93-8 9.08-18.57 5.86-27.5-1.56-4.32-4.63-8.06-7.23-11.79q-4.76-6.86-9.57-13.66c-12.17-17.18-24.84-34-38.92-49.72-15.74-17.5-33.33-33.3-53.45-45.55-1.22-.74-2.28 1.12-1.11 1.89Z" fill="#5cd1ff" class="fill-22906c"></path><path d="M456.22 419.59c31.12 21.32 55.4 50.58 76.75 81.33q8.1 11.64 16 23.44c2.45 3.67 5 7.31 7.33 11 3.22 5.1 3.37 8.69 1.38 14.39a89.53 89.53 0 0 1-29.43 40.88 59.88 59.88 0 0 1-12.59 7.88c-5.46 2.33-11 1.15-16.57-.29a93.69 93.69 0 0 1-29.14-13.4c-5.52-3.76-12.52 5.09-7.23 9.36 15.81 12.77 41.07 25.29 60.95 14.87 17.23-9 31.74-25.16 40.22-42.54 4.26-8.74 9.43-20.11 6-29.83-1.64-4.6-4.83-8.49-7.62-12.43-3.21-4.54-6.42-9.08-9.67-13.6-12.41-17.25-25.39-34.15-39.78-49.81-16-17.45-33.82-33.1-54.33-45.09-2.47-1.44-4.52 2.21-2.21 3.79Z" fill="#1a1c3f" class="fill-1a1c3f"></path><path d="M360.45 103.53c6.88 12.48 9.67 26.88 10.11 41.13s-1.37 28.45-3.17 42.58c-1 8-2.06 16.09-4.31 23.87-.57 2-1.73 4.29-3.77 4.24a4.53 4.53 0 0 1-3-1.76c-7.4-7.78-10.73-18.48-13.82-28.76-4.94-16.4-9.89-32.89-12.17-49.87-.47-3.49-.83-7.05-2.16-10.32s-3.79-6.26-7.15-7.29" fill="#fcfffe" class="fill-3fc091"></path><path d="M358.63 104.59c7.77 17.69 9.38 36.47 7.86 55.59-.77 9.67-2 19.3-3.28 28.91-.68 5.21-1.43 10.41-2.59 15.53-.15.69-1.27 6.81-2 6.82 1.38 0-2.08-3.83-2.37-4.22-4.79-6.78-7.23-14.84-9.59-22.71-2.72-9.07-5.42-18.16-7.71-27.35s-3.59-18.4-5.2-27.69c-1.26-7.25-4.56-13.38-11.65-16.12-5-1.92-7.1 6.06-2.21 8 6.94 2.74 6.32 15.31 7.37 21.32 1.43 8.12 3.4 16.13 5.61 24.07 4 14.32 7.33 30.62 15.53 43.24 2.63 4.06 6.82 10.59 12.52 9.13 6.32-1.61 7.13-10.82 8.1-16a291 291 0 0 0 5.18-49.69c.17-17.49-2.37-35.91-12-50.92-1.5-2.34-4.71-.31-3.64 2.12Z" fill="#1a1c3f" class="fill-1a1c3f"></path><path d="M230.08 405.75c3.86-72.84-30.48-142-40.82-214.18-2.43-17-3.47-34.76 1.93-51.09 6-18.06 19.63-33.07 36.13-42.52 15.08-8.63 32.48-13 49.67-14.63 13.13-1.24 26.95-2 39.85 1.23 19.36 4.88 31.21 21.93 37.8 39.73s15.68 64.74 20.45 83.3c8.07 31.35 15.74 35.11 16.42 68.28.61 29.59-13.53 60.07-45.48 65.33.21 16.49 2.33 47.47 1.33 64.55" fill="#a8cdf7" class="fill-ffffff"></path><path d="M330.66 341.2c31.94-5.26 46.08-35.74 45.47-65.33-.68-33.17-8.35-36.93-16.41-68.28-4.78-18.56-13.87-65.49-20.46-83.3s-18.44-34.85-37.8-39.73a77 77 0 0 0-13.62-2.07c-3.65.2-7.27.5-10.85.84-17.19 1.61-34.59 6-49.67 14.63-16.5 9.45-30.16 24.46-36.13 42.52-5.4 16.33-4.36 34.07-1.93 51.09 10.34 72.21 44.68 141.34 40.82 214.18H332c1-17.08-1.14-48.06-1.34-64.55Z" fill="#ffffff" class="fill-acfddf"></path><path d="M232.19 405.75c3-53.55-13.32-104.58-26.51-155.77-6.67-25.87-13.74-52.76-14.4-79.6-.33-13.57 1.68-27.12 8.25-39.15a75.85 75.85 0 0 1 23.29-25.68c21.29-14.83 48.67-19.49 74.18-19.24 12.36.11 24.87 2.12 34.64 10.22 8.26 6.83 14.08 16.32 18.08 26.17 6.71 16.54 9.9 34.78 13.78 52.14 4.08 18.25 7.73 36.6 14 54.25 3.18 8.89 6.63 17.62 8.3 27 2.08 11.63 2.61 24.23.51 35.9-4.06 22.47-18 41.29-41.37 45.44a4 4 0 0 0-2.89 3.81c.32 21.49 2.49 43.05 1.34 64.55-.27 5.05 7.58 5 7.85 0 1.17-21.49-1-43.06-1.3-64.55l-2.9 3.8c45.94-8.15 55.3-62.68 44.16-100.81-2.75-9.41-6.65-18.45-9.52-27.83s-4.94-18.72-7-28.18c-4.4-19.7-8.25-39.68-14.17-59s-17.32-38.93-37-46.71c-12.85-5.08-27.57-4.72-41.1-3.65-13.74 1.08-27.4 3.25-40.39 8-22.87 8.37-43.08 24.48-52.65 47.32-10.77 25.68-5.24 55.35.2 81.65 13 63.09 41.12 124.43 38.42 190-.12 2.72 4.06 2.7 4.21 0Z" fill="#1a1c3f" class="fill-1a1c3f"></path><path d="M326.11 342.88c5.35 2.93 13.68 2.17 19.57 2 4.81-.14 4.71-7.83 0-7.41-3.33.29-6.66.46-10 .68-3 .21-6.3 0-9.1 1.13-1.47.59-2.1 2.72-.47 3.61ZM300.62 209.42a5 5 0 0 0-4.68 2.68 5.15 5.15 0 0 0 .81 5.88 4.68 4.68 0 0 0 5.71 1c1.81-1 3.08-3.41 2.24-5.47-.72-1.78-2.41-2.91-4.36-2.09a3.25 3.25 0 0 0-1.54 4.58c-.59-1.29-.09-3 1.6-2.74a1.73 1.73 0 0 1 1.14.74c-.48-.6.34.38 0 .42-.08 0 .18-.83 0-.35s.19-.39 0 .13c.15-.24.18-.29.08-.15s-.06.11.38-.47c0-.06.41-.6.17-.32a2.26 2.26 0 0 0-1.58-3.81ZM353.42 199.73a5.07 5.07 0 0 0-4.69 2.68 5.18 5.18 0 0 0 .81 5.88 4.71 4.71 0 0 0 5.72 1c1.81-1 3.07-3.42 2.24-5.47-.72-1.78-2.42-2.92-4.36-2.1a3.27 3.27 0 0 0-1.55 4.59c-.59-1.3-.08-3 1.6-2.75a1.74 1.74 0 0 1 1.14.75c-.48-.61.34.37 0 .41-.08 0 .17-.83 0-.34s.19-.4 0 .12l.09-.14c-.18.26-.06.11.37-.48 0-.06.41-.59.18-.31a2.27 2.27 0 0 0-1.58-3.82ZM282 199.77c3.64-.2 7.16-1.34 10.67-2.26s7.45-1.71 11-2.77l-5.63-1.49.51.52c1.79 1.81 5.53 2.17 7.26 0l.41-.52c2.76-3.46 1.86-8.17-2.55-9.68-4.81-1.64-9.92.67-14 3.28-3.69 2.38-7.52 5.15-10.19 8.65-1.31 1.71.46 4.39 2.45 4.27ZM361.82 175.43c-2.57-1.65-6.32-2.48-9.25-3.39-3.33-1-8.07-1.24-10.95 1-2.11 1.61-3.45 3.89-2.7 6.62a6 6 0 0 0 5.65 4.3c5.43-.09 14-.33 17.69-5.06a2.23 2.23 0 0 0-.44-3.44ZM329.94 184a160.18 160.18 0 0 0 7.35 29.66c1.59 4.5 3.25 9 5.09 13.4 1.62 3.9 6.59 11.8 1.09 14.76-4 2.13-.4 8.26 3.52 6 10.9-6.17 3.44-18.43-.67-26.33-6.25-12-10-25.32-12.49-38.6-.47-2.58-4.28-1.45-3.89 1.08ZM317.29 273.57a17.19 17.19 0 0 0 18.12 11.58c3.39-.32 3.42-5.66 0-5.33A14.11 14.11 0 0 1 321 272c-1.06-2-4.47-.62-3.7 1.56Z" fill="#1a1c3f" class="fill-1a1c3f"></path><path d="M317.54 274.85a9.62 9.62 0 0 0 3.58-3.91 2.23 2.23 0 0 0-1-2.53 2.33 2.33 0 0 0-2.71.35c-.3.27-.47.77-.79 1 .16-.21.19-.24.09-.12s-.11.14-.17.2l-.29.33a11.17 11.17 0 0 1-1.34 1.23 2.2 2.2 0 0 0 2.66 3.45ZM335.68 279.23a26.77 26.77 0 0 0 .12 5.37 2.23 2.23 0 1 0 4.39-.6 23.9 23.9 0 0 1-.56-4.77c-.05-2.57-3.76-2.51-3.95 0Z" fill="#1a1c3f" class="fill-1a1c3f"></path><path d="M245 142.18c2.22 10.58.07 33.38-4.13 43.34s-8 21.2-4.24 31.32a16.23 16.23 0 0 0-8.24-11 12.89 12.89 0 0 0-13.45 1.06c-5.28 4.13-5.82 12.41-2.67 18.33s9.11 9.82 15.22 12.6a4.14 4.14 0 0 1 2.11 1.54c1.32 2.39-.18 6.91-.46 9.51a77.71 77.71 0 0 1-1.69 9.93 11.83 11.83 0 0 1-3.15 6.06c-2.66 2.48-6.32 2.52-9.63 3.49a24.14 24.14 0 0 1-3.81 1c-3.8.48-4.06-2.32-5.69-4.86-17-26.48-32.18-70.88-37-102" fill="#fcfffe" class="fill-3fc091"></path><path d="M242.58 142.18c1.48 11.64-.06 24.4-3.15 35.65-1.75 6.39-5.15 12.14-7.32 18.35-1.12 3.21-.8 7.4-.82 10.81a31.32 31.32 0 0 0 1.84 10.8c1.53 4.29 8.06 2.62 6.9-1.9-1.67-6.54-6-12.41-12.69-14.45-6.34-2-13.6-.09-17.62 5.34s-4.25 13.12-1.5 19.19a25.42 25.42 0 0 0 5.88 8.03c3.2 3 7.18 4.42 10.55 7 1.39 1.06 1.34 1.07 1.11 3.2-.16 1.54-.49 3.07-.67 4.61-.46 4-.3 11.14-3.84 13.82-1.47 1.11-3.68 1.28-5.42 1.68-1.39.32-4 1.56-5.39 1.21-1.93-.48-4.28-6.17-5.36-8-8.13-13.93-14.21-28.87-19.34-44.13-3-8.82-6.38-17.44-8.82-26.46-2.24-8.31-3.43-17-6-25.18-1-3.13-5.89-2.65-5.84.79.12 7.08 2.08 14.22 3.73 21.07.91 3.76 1.94 7.48 2.88 11.22s1.36 8.28 2.87 12c6.28 15.32 11.81 30.81 19.45 45.6 3 5.79 6.09 12.27 10 17.49 4 5.37 11.29 2.21 16.57.7 7.71-2.19 10.11-8.44 11.52-15.72 1.06-5.4 4.34-14.41-.11-18.94-3-3.06-8-4.16-11.43-6.95s-6.38-6.86-6.41-11.6c0-5.1 3.23-9.41 8.66-9.22s9 4.78 10.28 9.64l6.9-1.9c-1.33-4.23-2-9.13-.41-13.42 1.33-3.67 1.8-7.34 3.1-11.09 1.85-5.37 3.63-10.39 4.52-16 1.71-10.91 2.79-23 0-33.79-.65-2.51-5-2.08-4.65.62Z" fill="#1a1c3f" class="fill-1a1c3f"></path><path d="M221.86 220.47a5 5 0 0 1 3.35 3.47c.73 2.62 4.95 1.44 4.06-1.12a9.13 9.13 0 0 0-6.41-6 1.89 1.89 0 0 0-1 3.65Z" fill="#1a1c3f" class="fill-1a1c3f"></path><path d="M243.89 140.22c6.31 5.69 18.9 4.89 26.8 5.57 9.95.86 62.09 7.81 58-13.77-1.06-5.63-7.79-9.4-13.14-7.37a66.28 66.28 0 0 0 36.5-1.67c5-1.7 10-4.1 13.56-8s5.66-9.51 4.27-14.63c-2.2-8.1-11.41-11.77-19.5-14 6.27-1.55 14.39 1 18.3-4.1 2.07-2.71 1.79-6.7.1-9.66s-4.55-5.07-7.5-6.8c-7.49-4.39-15.95-6.81-24.39-8.85-18.32-4.41-37.25-7.19-56-5.46s-37.46 8.22-51.65 20.62a59.48 59.48 0 0 0 13.88-17.67c1.06-2.07 2-4.41 1.41-6.65-1.2-4.44-7.35-5.15-11.72-3.74-12.47 4-20.1 17-22.53 29.88a4.42 4.42 0 0 1-1 2.53 4.48 4.48 0 0 1-2.67.89c-15.53 1.83-29.68 11.07-39.14 23.53s-14.48 27.9-16.09 43.46c-.38 3.71-.54 7.65 1.14 11 2.88 5.72 10.42 7.74 16.65 6.28s11.41-5.61 16.41-9.61c-2.3 4.13.39 9.66 4.56 11.87s9.22 1.9 13.86 1c20.1-3.85 40.35-18.34 45.84-38.79" fill="#5cd1ff" class="fill-22906c"></path><path d="M242.28 141.83c7.8 7.39 19.49 6.17 29.4 7.27 6.67.74 13.32 1.56 20 1.93 11.63.64 35.85 1.82 40.43-12.63 3.37-10.63-7.06-20.59-17.57-17.39-3.4 1-3.79 6.46 0 7.29a72.59 72.59 0 0 0 30 .46c9-1.78 19.06-5.2 25-12.64 4.92-6.21 6.29-14.9 1.81-21.73s-12.52-9.68-19.85-11.81v7.51c6.39-1.26 14 .86 19.17-4.17 4.87-4.7 4-12.31.12-17.28-4.67-5.93-12.53-9.13-19.42-11.59A174.76 174.76 0 0 0 325 50.42C291 44 253.87 46 226.47 69.33l5.53 5.55c6.38-5.68 13.31-13.52 15.87-21.85 2.31-7.49-2.88-13.24-10.36-13.46-15.91-.46-26.92 17.12-30.27 30.59-.62 2.45-.7 3.09-3.23 3.74-2 .52-4.08.74-6.09 1.3a59.9 59.9 0 0 0-12.42 5.07 66.65 66.65 0 0 0-20.78 17.89A81.17 81.17 0 0 0 152.18 122c-2.89 8.57-5.5 18.83-4.9 28 .58 8.77 6.73 14.82 15.41 15.78 10 1.1 18.22-5.16 25.56-11.06l-5.94-4.59c-3.19 7.36.72 15.35 8.26 18 8.59 3.06 19-.21 27.07-3.55 16.55-6.87 30.63-20 35.61-37.55 1.24-4.39-5.55-6.25-6.82-1.88-3.61 12.46-12.55 22.29-23.63 28.75a62 62 0 0 1-17.05 6.82 29.11 29.11 0 0 1-9.64 1.05c-3.48-.37-9.27-3.32-7.27-7.86a3.8 3.8 0 0 0-5.94-4.59c-5.18 4.12-11.27 9.1-18.27 8.86-8.73-.3-10.14-7.28-9.32-14.68 1.57-14.33 6.37-28.69 15.1-40.26 8.3-11 20.43-19.29 34.08-21.79 2.53-.47 5.44-.41 7.42-2.33s2.09-5.12 2.78-7.65A39.87 39.87 0 0 1 223 55c2.39-2.68 14.92-12.56 17.33-6 1.12 3-3.45 8.58-5.25 11a60.49 60.49 0 0 1-8.64 9.31c-3.8 3.38 1.74 8.8 5.54 5.55 21.74-18.59 51.43-22.2 78.93-18.9 13.84 1.67 28.62 4.37 41.56 9.72a43.41 43.41 0 0 1 9.34 5c2.63 1.95 6.61 6.62 3.27 9.74-1.9 1.78-5.68 1.32-8.05 1.38a43.13 43.13 0 0 0-7.69.78c-3.87.8-3.54 6.52 0 7.51 5.13 1.44 11.21 3.18 14.79 7.42 5.14 6.08 1.06 13.9-4.61 17.87-11.9 8.32-29.34 8.76-43 5.63v7.29c4.58-1.35 9.71 2.5 8.37 7.47-.67 2.49-3 3.93-5.25 4.91-7.22 3.18-15.88 3.08-23.61 3.16-7.29.06-14.57-.39-21.84-1-9.39-.75-21.14 1-29.21-4.62-2.13-1.5-4.62 1.82-2.76 3.58ZM72.33 750.76c-2.48-45.34-3.75-102.11-6.22-147.45-1.75-31.93-3.34-64.93 7.85-94.88 12.26-32.83 39.13-58.79 70-75.38 48.69-26.18 105.44-34.64 160.11-35.37 50.5-.68 116.16-.75 159.29 29 36.64 25.26 45.64 78.91 50.55 119.9 6.15 51.09 3.27 102.94-2.6 153.91-1.71 14.81-3.78 29.79-1.7 44.54 3.66 26.07-4.27 39.82-30.12 48.86-46 16.11-95.18 18.55-143.49 19.71-50.25 1.2-100.44 3.15-150.8 2.71-38.58-.34-83.56 1.59-111.67-29.93-9.43-10.57-21.49-29.36-1.22-35.62" fill="#1a1c3f" class="fill-1a1c3f"></path><path d="M74.82 750.76c-2.44-51.54-3.27-103.15-5.57-154.69-1.18-26.63-1.77-54 6.32-79.73 7.2-22.87 21.57-42.6 39.58-58.22 38.71-33.57 92.5-47.69 142.4-53 24.11-2.55 48.38-2.92 72.6-2.75 23.26.17 46.68 1.19 69.6 5.41 21.7 4 43.44 10.72 61.65 23.54 16.72 11.77 27.21 30.45 33.87 49.38 6.89 19.59 10.43 40.23 13 60.77a541.45 541.45 0 0 1 3.74 85c-.89 28.67-4 57.08-7 85.6a176.88 176.88 0 0 0-1.14 21.34c.13 6.57 1.38 13 1.71 19.55.38 7.71-.51 15.69-5.14 22.13-5 6.88-13.12 10.92-20.88 13.79a272 272 0 0 1-40.94 11.18c-27.06 5.38-54.65 7.36-82.18 8.41-58.44 2.22-117 3.68-175.49 3.35-39.33-.22-90 .17-112.14-39.26-4.2-7.48-4.78-14.66 4.57-17.81 5.08-1.71 2.9-9.79-2.22-8.07C62.69 749.59 56 755.37 57 765c.9 8.66 6.57 16.46 12 22.9 14.55 17.15 35.53 26.14 57.34 29.73 23.93 3.93 48.56 3.12 72.72 3.14 31.43 0 62.84-.78 94.25-1.63 59.25-1.62 120.28-.14 177.57-17.62C489 796 509 788.24 513.87 767.85c2.59-10.93.06-21.48-.26-32.47-.46-15.56 2.3-31.09 4-46.52 6.2-57 7-114.65-2.83-171.29-3.74-21.44-9.33-43-19.88-62.21-10.95-19.91-27.39-34.29-48-43.64-43.84-19.88-94.24-19.59-141.42-18.9-55.06.79-111.36 8.86-160.68 34.67-21.38 11.18-40.8 26.35-55.61 45.51-16.34 21.1-24.8 45.72-27.19 72.21-2.46 27.51.58 55.26 2 82.75 1.42 28.13 2.49 56.27 3.81 84.41.6 12.8 1.25 25.6 2 38.39.2 3.18 5.15 3.22 5 0Z" fill="#1a1c3f" class="fill-1a1c3f"></path><path d="M327.08 420.57c16.35 26.66 25.06 57.32 28 88.33a368.69 368.69 0 0 1 1.41 49.85q-.5 12.59-1.5 25.15c-.72 9-2.25 18-2.54 27-.16 4.84 7.54 6 8.56 1.16 1.8-8.55 2.28-17.55 3.08-26.23.82-9 1.45-18 1.7-27.09a314.17 314.17 0 0 0-2.4-51.85c-4.39-31.43-14.39-62.24-32.23-88.71-1.68-2.5-5.69-.23-4.08 2.39Z" fill="#5cd1ff" class="fill-22906c"></path><path d="M76.77 750.76c-2.45-51.54-3.28-103.15-5.57-154.69-1.19-26.63-1.78-54 6.32-79.73 7.2-22.87 21.57-42.6 39.58-58.22 38.71-33.57 92.5-47.69 142.4-53 24.11-2.55 48.37-2.92 72.6-2.75 23.26.17 46.67 1.19 69.59 5.41 21.71 4 43.45 10.72 61.66 23.54 16.72 11.77 27.2 30.45 33.86 49.38 6.89 19.59 10.43 40.23 13 60.77a542.66 542.66 0 0 1 3.74 85c-.89 28.67-4 57.08-7 85.6a174.86 174.86 0 0 0-1.14 21.34c.13 6.57 1.37 13 1.7 19.55.39 7.71-.5 15.69-5.14 22.13-5 6.88-13.11 10.92-20.87 13.79a272 272 0 0 1-40.94 11.18c-27.06 5.38-54.66 7.36-82.19 8.41-58.43 2.22-117 3.68-175.48 3.35-39.34-.22-90 .17-112.14-39.26-4.2-7.48-4.78-14.66 4.57-17.81 5.08-1.71 2.9-9.79-2.23-8.07C64.64 749.59 58 755.37 59 765c.9 8.66 6.57 16.46 12 22.9 14.55 17.15 35.52 26.14 57.34 29.73 23.92 3.93 48.56 3.12 72.72 3.14 31.42 0 62.84-.78 94.25-1.63 59.25-1.62 120.28-.14 177.56-17.62C491 796 511 788.24 515.81 767.85c2.59-10.93.07-21.48-.26-32.47-.46-15.56 2.3-31.09 4-46.52 6.21-57 7-114.65-2.83-171.29-3.73-21.44-9.33-43-19.88-62.21-10.95-19.91-27.38-34.29-48-43.64-43.83-19.88-94.24-19.59-141.42-18.9-55.06.79-111.35 8.86-160.67 34.67-21.36 11.18-40.8 26.35-55.6 45.48C74.8 494.1 66.33 518.72 64 545.21c-2.46 27.51.58 55.26 2 82.75 1.42 28.13 2.5 56.27 3.82 84.41.6 12.8 1.25 25.6 2 38.39.19 3.18 5.14 3.22 5 0Z" fill="#1a1c3f" class="fill-1a1c3f"></path><path d="M183.15 702.49a273 273 0 0 0 69.78 81.68c36.68 28.76 83.43 48.22 129.53 41.37 49.43-7.35 89.71-43 122.45-80.77a662.63 662.63 0 0 0 73.7-103.62c15.49-26.93 31.21-57 59.75-69.25 10.07-4.33 21.07-6.07 31.32-9.95 23.61-8.93 42.38-29.83 48.54-54.31 1.77-7 1-16.76-6-18.52-2.53-.63-5.18.07-7.69.76l-76.8 21.2c4.42-3.28 10.36-3.35 15.67-4.83s10.89-6 9.8-11.36-7.44-7.27-12.74-8.22c-15.17-2.71-30.68-5.1-45.91-2.84s-30.4 9.82-38.34 23c-6.14 10.22-7.5 22.85-14.12 32.77-6.25 9.34-16.4 15.18-26.21 20.66-55.9 31.23-112.32 61.51-168.73 91.79-6.13 3.29-12.71 6.67-19.63 6s-13.73-7.17-11.9-13.88" fill="#a8cdf7" class="fill-ffffff"></path><path d="M680.66 502.89c-2.53-.63-5.17.07-7.69.76l-76.8 21.21c4.43-3.29 10.37-3.36 15.68-4.84s10.88-6 9.79-11.36-7.43-7.27-12.74-8.22c-14.84-2.65-30-5-44.93-3a41.36 41.36 0 0 0-7.78 9.38c-6.14 10.22-7.5 22.85-14.12 32.77-6.25 9.34-16.4 15.18-26.21 20.66-55.9 31.23-112.32 61.51-168.73 91.79-5.42 2.91-11.2 5.89-17.25 6.11l-14.29 7.66c-6.12 3.29-12.7 6.68-19.62 6s-13.67-7.1-11.93-13.77l-100.89 44.45a273 273 0 0 0 69.78 81.68c36.68 28.76 83.43 48.22 129.53 41.37a131.64 131.64 0 0 0 19-4.29c27.31-15.58 51.15-38.72 71.95-62.71a662.63 662.63 0 0 0 73.7-103.62c15.5-26.93 31.21-57 59.75-69.25a134.61 134.61 0 0 1 17.45-5.67 70.71 70.71 0 0 1 14.05-8.11 132.67 132.67 0 0 1 17.36-5.63 79.86 79.86 0 0 0 31-44.85c1.73-7.02.97-16.75-6.06-18.52Z" fill="#ffffff" class="fill-acfddf"></path><path d="M181.33 703.56c26.51 49.75 69.9 92.93 122.37 114.65 25.94 10.73 54.35 15.47 82.22 10.95 26.8-4.35 51.28-17.24 72.64-33.62 22.1-16.93 41.14-37.39 58.88-58.75a671.84 671.84 0 0 0 54.31-75.42c14-22.53 25.17-47.86 43.47-67.36a75.66 75.66 0 0 1 32.86-21c13.62-4.28 27.19-7.24 39.23-15.32a86.13 86.13 0 0 0 25.11-25.93c5.72-9.19 11.5-21.29 10.64-32.4-.36-4.63-1.95-9.55-5.93-12.32-5.14-3.57-11.06-1.75-16.57-.21q-24.46 6.83-49 13.51l-25 6.87 3.14 7.44c8.67-5.71 26.81-3.14 27.59-17.74.73-13.48-17.9-14.77-27.2-16.22-26.22-4.07-57.79-3-75.22 20.33-8.18 10.95-9.06 25.26-16.63 36.45-8.17 12.08-23.56 18.51-35.88 25.36q-44.15 24.54-88.6 48.47Q389 624.68 364.12 638c-8.16 4.38-16.23 9.26-24.67 13.09-3.88 1.77-8.54 3.5-12.85 2.44-3.53-.87-7.56-4.11-6.79-8.14 1-5.48-7.36-7.83-8.41-2.31-2.38 12.49 9.8 20.71 21.23 19.17 6.65-.9 12.61-4.24 18.44-7.36l22.68-12.18q43.62-23.43 87.1-47.1 21.72-11.86 43.37-23.87c11.8-6.55 24.77-12.51 34.72-21.83 10.2-9.55 12.72-22.25 17.89-34.63 5.24-12.55 15.8-20.88 28.63-24.92 16.78-5.29 35-2.9 52 0 3.08.53 6.75.9 9.43 2.64 4 2.59 1.79 6.09-1.61 8.05-6 3.48-13.56 2.51-19.59 6.49-3.74 2.47-1.47 8.71 3.14 7.44l46.07-12.76c7.68-2.13 15.35-4.27 23-6.37 5-1.38 14.33-6.21 16.51 1.07 1.5 5-.22 10.46-1.83 15.17a72.71 72.71 0 0 1-7.8 16 76.5 76.5 0 0 1-25.47 24.5c-12.07 7.11-25.77 9-38.72 13.77a82.43 82.43 0 0 0-29 18.83c-17.3 17.06-28.28 39.29-40.48 60a653.38 653.38 0 0 1-49.58 72.63c-16.65 21.15-34.39 41.73-54.57 59.61-18.79 16.63-40.14 31-64.11 38.94-25.68 8.5-52.87 8.23-78.82 1-59.44-16.65-108.24-63.78-139-115.89-1.39-2.34-4.92-.27-3.64 2.13Z" fill="#1a1c3f" class="fill-1a1c3f"></path><path d="M642.43 353.22a34.82 34.82 0 0 0-1.58-24.38c-.76-1.67-1.67-3.57-.91-5.24a5.3 5.3 0 0 1 2.38-2.2c3.41-1.94 10.22-6.54 14.14-6.77 2.78 10.36 1.39 13.39 6.49 15s10.61.94 15.91.25l80.73-10.49c5.88-.77 11.94-1.59 17-4.65s8.91-9 7.65-14.78c-.55-2.58-1.67-6.07.71-7.22a4.76 4.76 0 0 1 2.65-.17c5.22.68 10.62 1.42 15.1 4.19s7.78 8.18 6.42 13.27c-.91 3.4-3.67 6.08-4.59 9.48-.83 3.1 0 6.39.79 9.5l8.21 31.47" fill="#a8cdf7" class="fill-ffffff"></path><path d="M646.1 372.54c3-9.48 2-21.18 1.26-30.93a66.61 66.61 0 0 0-2.51-13.23c-.51-1.78-1.16-2.6.29-4.09a15.06 15.06 0 0 1 3.09-1.85c2.91-1.7 5.87-3.59 9.26-4.06l-4.78-2.72c1.19 4.57 1.22 11.18 4.56 14.88 4 4.42 11.81 4.13 17.14 3.63 19.24-1.82 38.46-5.1 57.62-7.67q14.58-2 29.17-3.82c7.16-.94 14.75-2.21 20.36-7.15 5.45-4.79 6.68-10.27 6.12-17.13-.18-2.27-.25-2 2.07-1.77a35.94 35.94 0 0 1 5.44 1.11c4.3 1.19 9.25 3.79 10.08 8.66.69 4.11-3.19 7.57-4.36 11.33-1.29 4.14-.46 8.23.58 12.34 2.66 10.5 5.58 20.95 8.39 31.42 1.26 4.71 8.52 2.72 7.32-2q-3.53-13.91-7.08-27.81c-1.08-4.24-2.88-8.67-.94-12.89 1.52-3.31 3.75-5.83 4.15-9.6.68-6.41-3.33-12.49-8.67-15.74a29.84 29.84 0 0 0-9.77-3.53c-3.19-.64-7.74-1.94-10.92-.76-6.91 2.56-2.45 9.72-3.35 14.64-1.66 9.05-12.86 11-20.35 12-19.54 2.8-39.18 5-58.76 7.48-10.29 1.29-21.19 3.82-31.57 3.56-2.76-.07-6.11.11-7.4-2.45-1.5-3-1.52-7.57-2.33-10.79-.37-1.48-2.11-3.07-3.75-2.86-6.07.79-12.65 4.43-17.45 8.18-5.77 4.5-1.73 10.19-.43 15.77 2.6 11.16 5.71 25.2 2.95 36.59a2.37 2.37 0 0 0 4.57 1.26Z" fill="#1a1c3f" class="fill-1a1c3f"></path><path d="M348.17 360.8c-.52 6.6-1.08 13.35-3.95 19.41s-8.54 11.39-15.6 12.26c-5.55.67-11-1.43-16.15-3.49l-81.09-32.47c-4.08-1.63-9.13-3.16-12.62-.61a11.59 11.59 0 0 0-3 3.88q-6 10.7-11.22 21.73c-2.82 5.92-5.54 12.43-3.87 18.72 2 7.62 9.8 12.53 17.19 16.34a250.23 250.23 0 0 0 78.44 25c2.9.42 5.95.78 8.69-.19 3.83-1.35 6.12-4.94 8-8.32A236.83 236.83 0 0 0 329 398.84l20.85 25.33a10.83 10.83 0 0 0 3.19 2.95c2.72 1.44 6.33.49 8.65-1.47s3.66-4.7 4.94-7.36L377 396.57a12 12 0 0 0 1.49-4.65 11.18 11.18 0 0 0-1.52-5.12c-4.83-9.73-11.54-18.53-18.2-27.28-1.28-1.67-2.67-3.42-4.72-4.17s-4.91 0-5.36 2.06" fill="#5cd1ff" class="fill-22906c"></path><path d="M346.22 360.26c-1.69 11.4-4.26 29.1-19.45 29.13-6.84 0-13.68-3.72-19.86-6.23l-21.17-8.58c-13.19-5.34-26.43-10.58-39.57-16.07-8.45-3.54-23.33-13.23-31.51-4.38-3.95 4.28-6.47 10.91-9.09 16-3 6-6.53 12.13-8.38 18.61-3.14 11 1.34 20 10.24 26.53 9.52 6.94 21.17 11.55 32.07 15.84a251.08 251.08 0 0 0 37.85 11.52c11.51 2.54 27.8 8.32 36.48-2.63 4.23-5.34 7.16-12 10.1-18.1 3.45-7.15 6.52-14.48 9.3-21.92l-7.41 2q8 9.67 16 19.36c3.65 4.46 7.25 10.68 13.71 10.91 6.12.21 10.8-4 13.61-9 3.62-6.5 6.55-13.48 9.72-20.2s5.32-11.41 1.89-18.4a125.5 125.5 0 0 0-12.21-19.18c-3.34-4.52-7-11.36-12.34-13.73a8 8 0 0 0-11.08 4.73c-1.38 4 4.68 6.41 6.78 2.86.68-1.15 7.07 7.51 7.62 8.25 2.9 3.91 5.75 7.87 8.35 12s7.39 10.09 5.32 14.82c-1.86 4.23-4.06 8.33-6 12.5-1.88 3.93-3.55 8.07-5.71 11.85-1 1.69-2.29 4.18-4.46 4.53-2.59.41-3.78-1.91-5.24-3.67-6.58-7.91-13.08-15.89-19.61-23.85-2.32-2.82-6.36-.83-7.41 2-4.44 11.77-9.6 23.73-16.25 34.45-1.46 2.35-2.82 4.37-5.58 5.15s-6.07 0-8.93-.5c-5.94-.94-11.86-2.11-17.72-3.48a251 251 0 0 1-34.35-10.66c-10-3.89-20.68-8.13-29.53-14.24-4.32-3-8-6.9-8-12.46 0-6.41 3.89-12.68 6.66-18.25 2.57-5.18 5-11.08 8.33-15.82 2.12-3 3.71-3.71 7.43-2.76a82.31 82.31 0 0 1 9.14 3.3c24.09 9.22 48 18.85 72 28.34 10.89 4.31 22.26 8.29 32.16-.37 8.46-7.4 10-18.95 10.13-29.56 0-2.21-3.62-2.84-4-.54Z" fill="#1a1c3f" class="fill-1a1c3f"></path><path d="M168.28 456.49c-36.31 8-65.58 41.18-68.92 78.2-1.61 17.78 2.21 35.61 7.09 52.78a423.13 423.13 0 0 0 57.83 123.22c3.34 4.87 6.94 9.82 12 12.83 6.87 4.07 15.36 4 23.31 3.36a216.47 216.47 0 0 0 138.46-66.3c3.09-3.26 6.21-6.91 6.79-11.35s-1.51-8.85-3.57-12.88Q305 565.13 264.55 496.1c-5-8.57-10.15-17.2-17.05-24.34-16-16.53-53.38-22-75.48-15.62" fill="#5cd1ff" class="fill-22906c"></path><path d="M168 455.37a91.49 91.49 0 0 0-55.34 37.27c-15.18 21.78-18.44 47.3-13.87 73.09 5 28.54 15.62 56.62 27.63 82.9a424.22 424.22 0 0 0 20.5 39.37q5.43 9.18 11.3 18.06c3.73 5.65 7.42 11.82 12.52 16.36 9.36 8.35 22 7.68 33.71 6.46a212.17 212.17 0 0 0 38.66-7.66 220.35 220.35 0 0 0 70.81-36c9.85-7.53 19.62-15.85 27.67-25.32 3.41-4 5.92-8.5 5.34-13.93-.74-6.81-5.23-13.32-8.3-19.26q-22.32-43.33-46.22-85.84-12.92-22.93-26.24-45.64c-6.88-11.71-14.11-24.14-25.94-31.48-19.28-12-46.92-15.3-68.7-9.29a1.83 1.83 0 0 0 1 3.53c19.24-5.31 42.49-2.73 60.39 5.95 11 5.31 18.19 14 24.61 24.15 7.41 11.76 14.14 24 21 36.07q21.66 38.16 42.15 77c6.63 12.55 13.52 25.06 19.63 37.88 2.05 4.31 3.69 8.81 1.45 13.44a28.18 28.18 0 0 1-5.13 6.73c-4.42 4.71-9.15 9.17-14 13.42a214.41 214.41 0 0 1-63.93 38.27 217.59 217.59 0 0 1-34.12 10c-11.61 2.4-24.35 4.8-36.24 3.74-15.28-1.38-22.37-15.36-29.79-27q-10.47-16.49-19.41-33.88a419.24 419.24 0 0 1-29.81-75.21c-8.22-28.5-12.51-57.91 1.81-85.2 11.76-22.4 32.77-39.71 57.45-45.71 1.46-.36.84-2.56-.62-2.24Z" fill="#5cd1ff" class="fill-22906c"></path><path d="M450.67 527.42c-5.92-17.64-12.2-35.33-21.71-51s-22.57-29.32-38.7-35.82c-13.49-5.44-31.63-3.76-38.35 10.12a3.69 3.69 0 0 0-.47 2.6c.32 1.08 1.44 1.57 2.42 1.93l25.68 9.32a59.39 59.39 0 0 0-52.34-5.66c-4.05 1.52-8.12 3.62-10.69 7.35s-3.16 9.44-.31 12.92c2.55 3.11 6.79 3.53 10.6 3.74l17.68 1c-5.79-1.66-11.76-3.34-17.69-2.49s-11.91 4.84-13.57 11.13c-2 7.65 3.14 15.8 9.73 19.19s14.19 3.22 21.47 3l-18.72-1.55c-2.58-.21-5.48-.31-7.38 1.6a8.68 8.68 0 0 0-2 4.25c-3 13.77 7.32 26.87 18.45 34.14 2.51 1.64 5.22 3.17 8.14 3.24s6.07-1.73 6.82-4.81-2.05-6.78-4.82-5.78a65.93 65.93 0 0 0 33.53 17.49c9.08 1.68 19.46 1.84 25.69 9.25" fill="#fcfffe" class="fill-3fc091"></path><path d="M429 476.43c-9.5-15.66-22.57-29.32-38.7-35.82l-.69-.27a21.74 21.74 0 0 0-10.76 10.39 3.74 3.74 0 0 0-.47 2.6c.32 1.08 1.44 1.57 2.43 1.93l1.5.54a58.57 58.57 0 0 0-28.17 3.12c-4.05 1.52-8.12 3.62-10.69 7.35s-3.16 9.44-.31 12.92a10.3 10.3 0 0 0 6.52 3.33 15.33 15.33 0 0 0-9.5 10c-2 7.65 3.14 15.8 9.73 19.19a23.69 23.69 0 0 0 3.63 1.49l-.88-.07c-2.58-.21-5.48-.31-7.38 1.6a8.68 8.68 0 0 0-2 4.25c-3.05 13.77 7.32 26.87 18.46 34.14 2.5 1.64 5.21 3.17 8.13 3.24a6.8 6.8 0 0 0 6.83-4.81 4.34 4.34 0 0 0 .09-1.48 65.4 65.4 0 0 0 28.61 13.19c2.33.43 4.74.76 7.15 1.14l38.16-37c-5.94-17.62-12.22-35.31-21.69-50.97Z" fill="#5cd1ff" class="fill-22906c"></path><path d="M453.21 526.72c-8-28-17.78-58.08-40.4-77.91-16.07-14.08-46.39-26.09-62.37-4.82-3.86 5.14-6 12.18 1.18 15.39 8.55 3.81 17.88 6.44 26.7 9.62 5 1.81 7.82-5.73 3.53-8.37-17.77-10.91-44.41-14.63-62.85-2.73-7.54 4.89-12.53 15.38-6.69 23.53 2.71 3.78 7.11 5.21 11.54 5.7 6.81.75 13.75.8 20.59 1.16 5 .26 5.83-7.27 1.16-8.59-8.3-2.33-17.27-4.46-25.51-.74-6.56 3-11.42 9.13-11.67 16.48s4 14.43 9.91 18.57c7.55 5.31 17.21 5.34 26.05 5.06 5.66-.17 5.53-8.23 0-8.69-6.8-.57-13.87-1.76-20.7-1.66-5 .07-9.11 2.17-10.94 7.06-3.91 10.51.83 22.07 7.51 30.26 5.59 6.86 16.52 17.2 26.3 14.21 4.3-1.31 7.8-5.39 7.67-10-.13-4.86-4.3-9.5-9.33-8.84-3.49.46-6.17 4.62-3.11 7.5A82.06 82.06 0 0 0 371 566.54c9.1 3.23 21.91 2.86 28.69 10.44 5.36 6 14.36-3 8.85-8.86-7.78-8.35-18.15-8.76-28.75-9.89-12.13-1.31-23-7.26-31.79-15.53l-3.11 7.5c.08 1.14-.34 1.7-1.27 1.67a3.13 3.13 0 0 1-2.41-.2 12.72 12.72 0 0 1-3-1.49 41.15 41.15 0 0 1-7-5.24c-4.15-3.8-7.84-8.38-9.78-13.72a21 21 0 0 1-1.34-7.64c.08-3.46.38-6 4.22-6.14 6.52-.26 13.53 1.09 20 1.63v-8.69c-9.89.32-26.27-.07-27.29-13.5-.38-5 3.14-8.95 7.65-10.53 6-2.11 12.69.1 18.54 1.78l1.16-8.58-13.75-.81c-3.17-.18-9.5.39-11.44-2.91-4.39-7.47 8.21-12.46 13-13.87 15.28-4.45 31.47-1.73 44.9 6.58l3.53-8.37-12.83-4.69c-3.52-1.29-7.32-3.37-11-4.05q-3.26-1.59-.27.57a17.73 17.73 0 0 1 1.41-2.12 16.57 16.57 0 0 1 2.59-2.57 19 19 0 0 1 6.26-3.22c11.69-3.64 24 1.34 33.52 8 25.16 17.49 37.05 48.63 47.69 76 1.2 3.08 6 1.93 5.07-1.4Z" fill="#1a1c3f" class="fill-1a1c3f"></path><path d="M894 527.91c-23 80.43-58 159.21-114.8 220.63-22.34 24.14-48.86 45.9-80.51 54.87-30.94 8.78-64.23 4.58-95.14-4.32-91.67-26.41-169.9-95.19-209-182.18-3-6.62-5.79-13.55-5.85-20.8s3.21-15 9.7-18.23c-11.09-4.77-11.82-21.41-4.69-31.14s19-14.55 29.74-20c6.76-3.4 13.59-7.29 21.14-7.8s16.09 3.66 17.59 11.08c17.92-7.26 38.8-3 55.79 6.18s31 22.95 45.35 35.93a703.71 703.71 0 0 0 83 64.57c1.18 2.06-1.61 4.93-3.71 3.8a415.87 415.87 0 0 0 82.81-123.08c7.95-18.18 14.63-37 24.58-54.16s23.65-32.92 41.76-41" fill="#a8cdf7" class="fill-ffffff"></path><path d="M891.86 527.32c-15.14 49.51-34.13 98.17-60.49 142.86a426.33 426.33 0 0 1-44.31 62.3c-16.26 18.84-34.26 36.87-55.45 50.13a130.57 130.57 0 0 1-74.94 20c-26-.9-51.67-7.82-75.88-17-42.21-16.06-80.82-41.47-112.9-73.19a329.88 329.88 0 0 1-48-59.84c-6.66-10.65-12.55-21.71-18.11-33-5.13-10.39-15-29.63-1.16-37.75 2.71-1.59 3.26-6.47 0-7.9-6.62-2.93-8.08-10.58-6.62-17.11 1.84-8.5 8.93-14.16 16.06-18.38a223.45 223.45 0 0 1 24.52-12.39c7.39-3.2 20.71-5.36 23.48 5.13.55 2.08 3.12 3.82 5.27 3 36.11-13.91 68.4 14.93 93.05 37.47a734.86 734.86 0 0 0 87.72 68.83l-2-2.6 1.64-1.54 1.92 7.27a422.77 422.77 0 0 0 62.75-83 427.29 427.29 0 0 0 23.28-47c7.29-17.21 13.87-34.85 23.6-50.88 9.42-15.52 21.87-29.18 38.53-36.94 4.83-2.26.62-9.36-4.18-7.16-31.45 14.43-47.15 46.77-59.77 77-13.94 33.42-29.89 65.27-51 94.79a415.28 415.28 0 0 1-39.33 47 4.38 4.38 0 0 0 1.92 7.26c5 1.37 10.34-2.82 9.32-8.23-.64-3.4-4.28-4.84-6.88-6.59q-5.8-3.86-11.46-7.86-21.83-15.36-42.39-32.38c-13-10.8-25.43-22.32-38.08-33.58-12.06-10.73-24.91-21-39.88-27.4-16.11-6.85-34.46-9.17-51.09-2.76l5.27 3c-2.93-11.1-14.94-15.57-25.44-13.75-7 1.22-13.31 4.77-19.58 7.92-5.67 2.85-11.49 5.46-16.92 8.77-9.43 5.73-17.61 13.74-19.35 25.06-1.52 9.91 1.85 20.11 11.07 24.93v-7.9c-10.77 5.79-13.76 18.54-11.68 29.82 2.28 12.37 9 24.57 14.92 35.58a343 343 0 0 0 155 147.17c47.82 22.34 107.13 38.65 158.22 17.88 24.28-9.87 45.32-26.4 63.41-45.13A402.28 402.28 0 0 0 825.29 696c32.75-51.37 55.06-108.83 70.88-167.47.75-2.79-3.47-3.94-4.31-1.19Z" fill="#1a1c3f" class="fill-1a1c3f"></path><path d="M409.62 574.25c19.73-10.14 39.56-23.38 54.84-39.6 2.69-2.87-1.53-7.12-4.33-4.33-7.75 7.72-15.37 15.43-24 22.23a192 192 0 0 1-28.52 18.29c-2.25 1.2-.26 4.58 2 3.41ZM648.35 383.54c13.52 5.48 28 6.51 42.5 6.1 14.63-.43 29.31-1.66 43.86-3.18a299.54 299.54 0 0 0 41.78-7 192 192 0 0 0 19.71-6c6.22-2.29 13.25-4.69 18.46-8.85 2.37-1.89-.2-5.95-2.94-5-6.44 2.15-12.41 6-18.77 8.51a157.21 157.21 0 0 1-18.8 6.08 291.21 291.21 0 0 1-41.18 7c-13.39 1.43-26.87 2.68-40.32 3.38-14.65.77-29.34.17-43.16-5.18-2.59-1-3.66 3.13-1.14 4.15ZM237 724.28c26.46-8.44 53.4-16.57 76.65-32.21a123.78 123.78 0 0 0 29.48-27.37 76.07 76.07 0 0 0 10.63-18.46c2.44-6.28 4.92-15.24 2.52-21.83-1.18-3.26-6.85-4.18-7.57 0-.56 3.27-.2 6.56-.68 9.85a43.23 43.23 0 0 1-3.12 10.74 71.9 71.9 0 0 1-11.05 17.44 128.57 128.57 0 0 1-28.34 24.81C284 701.33 260 711.38 236 720.46c-2.34.89-1.42 4.6 1.05 3.82ZM677.46 526.39c11.13-2.88 22.9-6.54 33.16-11.83 8-4.1 13.23-13.86 7.48-22a2.67 2.67 0 0 0-4.61 2.7c4.12 8-8 14-13.44 16.88a162 162 0 0 1-23.8 9.85c-2.75.94-1.66 5.14 1.21 4.4Z" fill="#1a1c3f" class="fill-1a1c3f"></path><path d="M677.73 544.91c11.06-1 23.33-4.23 31.44-12.28 5.75-5.7 12.58-20.88-.5-22.25-4.51-.47-4.51 6.64 0 7.07 3.17.31-3.46 9.33-3.88 9.78a35.09 35.09 0 0 1-7.92 6.22 69.57 69.57 0 0 1-19.68 7.4c-2.23.52-1.8 4.26.54 4.06Z" fill="#1a1c3f" class="fill-1a1c3f"></path><path d="m608.62 383.3-16.15 5.94c-9.58 3.53-20.09 7.9-24.5 17.5-3.13 6.82-2.42 14.81-1.64 22.33.59 5.71 2.18 12.7 7.5 14.08 6.82 1.76 12.23-7.68 19.26-7.53 5.66.12 10.51 6.53 16 5 5.08-1.46 7-9 12.14-10.12 3.19-.68 6.4 1.55 8.13 4.44s2.33 6.34 3.07 9.66a96.5 96.5 0 0 0 4.25 14c1.77 4.53 4.38 9.37 8.88 10.65 5.91 1.68 11.67-3.91 13.71-10s1.75-12.71 3.32-18.92c1-3.92 3.85-8.3 7.65-7.57 3.2.6 5.15 4.63 8.38 4.91 5.41.45 7.34-9.38 12.77-9.44 4.26-.05 7.31 6.26 11.41 5 2.1-.62 3.66-3.17 5.81-2.82 1.36.23 2.37 1.6 3.74 1.73a3.74 3.74 0 0 0 2.62-1.09c3.27-2.8 4.62-7.51 4.46-11.95-.74-20.55-15.33-31.66-34.28-35.48-9.15-1.85-18.55-2.23-27.86-2.4-13.17-.24-26-2-38.92 2" fill="#a8cdf7" class="fill-ffffff"></path><path d="M719.41 419.11c-.74-20.55-15.33-31.66-34.28-35.48-9.15-1.85-18.55-2.23-27.86-2.4-13.17-.24-26-2-38.92 2l-9.73.06-7.38 2.71c-7.53 3.2-14.68 7.5-18.12 15-3.12 6.82-2.41 14.81-1.63 22.33.55 5.32 2 11.74 6.45 13.71a10.5 10.5 0 0 1 5.15-1.43 9.29 9.29 0 0 1 2.6.46c4.06-2.29 8-6.29 12.55-6.19 3 .06 5.84 1.93 8.63 3.42a8.38 8.38 0 0 1 4.34-2.84 7.19 7.19 0 0 1 6.41 2.27c2.88-2.8 4.91-7.18 8.75-8 3.18-.68 6.4 1.55 8.13 4.44s2.32 6.34 3.06 9.66a96.15 96.15 0 0 0 4.26 14c1.37 3.53 3.26 7.23 6.15 9.31a16.85 16.85 0 0 0 1.28-2.89c2-6.05 1.75-12.71 3.32-18.92 1-3.92 3.85-8.3 7.65-7.57 2.69.51 4.5 3.44 6.94 4.52.16-.9.34-1.79.57-2.68 1-3.92 3.84-8.29 7.65-7.57a7.81 7.81 0 0 1 3.48 2 4.72 4.72 0 0 1 2.51-.79c2 0 3.78 1.39 5.5 2.75 3.3-2.4 5.41-8.43 9.65-8.48s7.17 6 11.13 5.11a17.38 17.38 0 0 0 1.76-8.51Z" fill="#ffffff" class="fill-acfddf"></path><path d="M608.06 381.27c-13.74 4.77-32.72 8.38-41.27 21.5-4.75 7.28-4.64 16.23-3.89 24.56.53 6 1.28 13.38 6.48 17.3s10.92 1.57 15.74-1.66c2.63-1.76 5.43-4.24 8.79-3.72 3.75.58 6.82 3.71 10.53 4.68 7.09 1.85 10.45-3.44 14.67-7.91 7.88-8.35 11.1 14.69 12.6 19.16 2.18 6.52 5.08 14.72 12.24 17.18 6.84 2.34 13.38-2.23 16.8-8 4.65-7.81 2.19-17.45 6.08-25.31 2.57-5.19 5.56 0 8.81 1.37a8.07 8.07 0 0 0 7.72-.6c2.18-1.37 3.54-3.54 5.13-5.49.65-.79 1.71-2.5 2.88-2.56 1.33-.06 3 1.91 4 2.69 2.2 1.69 4.56 3 7.4 2.58a12.32 12.32 0 0 0 3.91-1.58 9.54 9.54 0 0 0 1.15-1.13c.39 0 1.66 1 2.14 1.18 7.39 3 12.39-6.4 13.32-12.36 1.06-6.81-.56-14.3-3.51-20.46-6.88-14.36-22.34-21.2-37.31-23.52-10.6-1.64-21.1-1.22-31.78-1.2-11.18 0-22.2-.49-33.07 2.66-3.29.95-1.89 6.09 1.42 5.15 16.46-4.7 34.5-1.78 51.27-.28 13.14 1.17 27.71 3.57 37.1 13.78a30 30 0 0 1 7.31 15.3c.59 3.31.89 6.95-.37 10.14-1.69 4.25-4 1.27-7.34 1.84-2.19.38-4.15 3.06-6.18 2.62-2.22-.49-4.16-3.32-6.47-4.1-5-1.67-8.69 1.33-11.61 5-1.53 1.95-2.62 4.43-5.21 3.1s-3.83-3.57-6.86-4.05c-5.58-.88-9.56 4.06-11.18 8.82-2.48 7.31-.88 16-4.93 22.78-2.06 3.45-6.21 6.86-10.11 3.86-3-2.34-4.47-7-5.67-10.5-2.47-7.11-2.72-16.06-7.27-22.23-3.12-4.23-8.75-6.54-13.64-3.91-4.64 2.5-7.16 11-13.19 8.63-5.38-2.06-9.24-5.75-15.38-3.93-4.73 1.4-12.59 10.64-17 5.41-2.1-2.5-2.47-6.87-2.82-9.94A65.13 65.13 0 0 1 569 415c1.69-19 25.61-24 40.2-29.71 2.48-1 1.48-5-1.12-4.06ZM358.21 927.89c-3.13 7.69-5.78 15.56-8.93 23.25-2.55 6.25-5.31 15.7-1.31 21.84a3.67 3.67 0 0 0 6.26 0c1.77-3 1.81-6.19 2.28-9.6.54-3.88 1.17-7.75 1.74-11.63 1.13-7.63 2.95-15.09 4.19-22.7a2.19 2.19 0 0 0-4.23-1.16Z" fill="#1a1c3f" class="fill-1a1c3f"></path><path d="m617.68 388.5.13-20.23c0-4.78 0-9.88-2.71-13.84a33.8 33.8 0 0 1-2.82-4c-2.1-4.34.92-9.75 5.2-12s9.33-2.09 14.15-1.91l14.9.55c3.6.13 7.26.28 10.67 1.45s6.59 3.54 7.85 6.92c2.55 6.82-3.35 13.7-4.72 20.85a33.06 33.06 0 0 0 0 9.78q.87 8.1 2 16.19c-14 4.61-29.25 3-43.94 1.38" fill="#ffffff" class="fill-acfddf"></path><path d="m634.26 390.66.12-20.23c0-4.77 0-9.88-2.71-13.83a34.26 34.26 0 0 1-2.82-4c-2.1-4.33.93-9.75 5.2-12s9.34-2.09 14.15-1.91l10.39.38a14.86 14.86 0 0 0-1.39-.55c-3.41-1.17-7.07-1.32-10.67-1.45l-14.9-.55c-4.82-.18-9.88-.3-14.15 1.91s-7.3 7.63-5.2 12a33.8 33.8 0 0 0 2.82 4c2.67 4 2.74 9.06 2.71 13.84q-.06 10.11-.13 20.23l.73 5.19c5.45.61 11 1.21 16.48 1.49Z" fill="#a8cdf7" class="fill-ffffff"></path><path d="M620.05 388.5c.67-6.41.83-12.87 1.11-19.31.22-5.09.28-10.59-2.12-15.24-1.26-2.45-4-4.48-3.6-7.46s3.47-4.83 6-5.57c5.76-1.71 12.68-.56 18.59-.36s13.29-.64 18.41 2.63c6.27 4 2.49 10.82.35 16.11-4.4 10.91-1.39 22.67.29 33.92l2.38-4.21c-13.91 4.61-28 4-42.26 1.9-4.13-.6-5 5.34-.77 5.67 14.9 1.16 30.25 3.23 44.85-1a3.44 3.44 0 0 0 2.51-3.3c-.91-7.61-2.82-16.2-2-23.86.73-7 5.86-12.81 5.57-20-.61-15.22-19.43-14.83-30.25-15.25S610.18 331 608 345.75a11 11 0 0 0 1.9 8c2.13 3.22 3.91 5.71 4.3 9.73.81 8.31.34 16.73 1.11 25.06a2.37 2.37 0 0 0 4.73 0Z" fill="#1a1c3f" class="fill-1a1c3f"></path><path d="M634.79 311.79c.17 7 0 14-.08 21-.07 4.33 6.9 4.32 6.72 0a194.72 194.72 0 0 0-2.25-21.56c-.38-2.52-4.45-1.89-4.39.59Z" fill="#1a1c3f" class="fill-1a1c3f"></path><path d="M637 321.56c-5.07-.05-9.75-3.7-11.59-8.41a17 17 0 0 1 1.59-14.61c2.26-3.78 5.82-6.88 7.07-11.11.68-2.3.37-5.23-1.69-6.46a4.81 4.81 0 0 1 4.06-1.08c8.39 1.34 12.82 9.64 14.24 17.28 1.62 8.71 0 17.34-7.75 22.52l-1 .64a22.83 22.83 0 0 1-3.17 1.67" fill="#ffffff" class="fill-acfddf"></path><path d="M638.27 321.16a5 5 0 0 1-3.33-2.47 14.65 14.65 0 0 1 4.12-20.44c-.66 1.7.1 3.62 1.14 5.11s2.38 2.81 3.08 4.49a8.64 8.64 0 0 1-.39 6.77 18.87 18.87 0 0 1-4.19 5.51" fill="#fcfffe" class="fill-3fc091"></path><path d="M637.59 319.44c-11.35-3.52-11.1-14.5-5.22-22.86 3.53-5 8.32-12.73 2.23-17.86l-.65 5c4.14-2.66 9.2 3.27 10.83 6.33a26 26 0 0 1 2.77 10 21.38 21.38 0 0 1-1.4 10.35c-1.9 4.26-5.55 6.07-9.16 8.61-3 2.14-1.32 7.43 2.66 6.3 12.93-3.69 16.94-17.86 14.18-29.71-2.05-8.79-12.16-24.52-23.09-17.4-1.57 1-2.3 3.61-.64 5 4.1 3.42-4.3 10.69-6.11 13.59a19.82 19.82 0 0 0-2.9 13.42c1.18 8.2 8 14.74 16.5 13.44 2.28-.35 1.89-3.64 0-4.23Z" fill="#1a1c3f" class="fill-1a1c3f"></path><path d="M635.3 312.65c.05 3.38.08 6.75.25 10.13.19 3.6 5.9 3.57 5.6 0-.28-3.39-.71-6.75-1.12-10.13-.36-2.93-4.78-3.13-4.73 0Z" fill="#1a1c3f" class="fill-1a1c3f"></path><path d="m349.8 594.45 5.15 3c2.82 1.67 5.42-2.8 2.56-4.38a21.56 21.56 0 0 0-6.15-2.35 2 2 0 0 0-1.56 3.69ZM367.09 603.56c-1.9-.34-4.4-.62-6.14.38-2.12 1.22-1.28 4.87 1.28 4.74 1.47-.08 2.8-.77 4.28-.82a2.19 2.19 0 0 0 2.15-1.9 2.16 2.16 0 0 0-1.57-2.4ZM370.08 579.87c-1.88-.08-3.81.7-5.61 1.2a2.8 2.8 0 1 0 2.16 5.12 18.49 18.49 0 0 0 4.91-2.8 2.08 2.08 0 0 0-1.46-3.52ZM352.1 570.55a9.55 9.55 0 0 1 2.86.9 2.32 2.32 0 1 0 1.79-4.25 14.17 14.17 0 0 0-4.65-1 2.15 2.15 0 0 0 0 4.3ZM334.16 446.37l2.79-.23a2.45 2.45 0 1 0-.65-4.82l-2.75.57a2.27 2.27 0 0 0-1.63 2.51 2.25 2.25 0 0 0 2.24 2ZM340.32 425.72l-2.23 4.55a2.45 2.45 0 1 0 4.48 1.89l1.44-4.88c.63-2.15-2.67-3.65-3.69-1.56Z" fill="#5cd1ff" class="fill-22906c"></path><path d="M331 427.11a143.37 143.37 0 0 1-20.18 3.4c-8.63.82-17.46.84-25.8-1.51s-16.19-7.31-20.69-14.71-5.27-16.3-4.19-24.76c.38-2.94 1.06-6 3.11-8.16s5.88-2.8 7.91-.65c.55-4.59 1.56-9.89 5.64-12.08a7.53 7.53 0 0 1 9.93 3.25c-.14-5.61 2.24-11.6 7.15-14.3s12.27-.66 13.91 4.7c2.4-4.5 5.09-9.24 9.63-11.56a13.22 13.22 0 0 1 17.15 5.6c1.77-2.68 4.1-5.16 7.15-6.17s6.87-.14 8.49 2.63c.49.84 1 2 2 1.91a2.78 2.78 0 0 0 1.08-.46c2.39-1.34 5.55-.48 7.55 1.4a15 15 0 0 1 3.74 7.19c3.14 11.6 1.12 24.28-4.35 35s-14.21 19.52-24.16 26.26" fill="#fcfffe" class="fill-3fc091"></path><path d="M271.54 405.92c.37-2.94 1-6 3.1-8.16s5.88-2.8 7.92-.65c.55-4.59 1.55-9.89 5.64-12.08a7.52 7.52 0 0 1 9.92 3.25c-.14-5.61 2.24-11.6 7.16-14.3s12.27-.66 13.91 4.7c2.4-4.5 5.09-9.24 9.63-11.56a13.22 13.22 0 0 1 17.15 5.6c1.76-2.68 4.1-5.16 7.14-6.17s6.88-.14 8.5 2.63c.49.84 1 2 2 1.91a2.85 2.85 0 0 0 1.08-.46 4.85 4.85 0 0 1 1.21-.48 42.36 42.36 0 0 0-1.29-7.32 15 15 0 0 0-3.74-7.19c-2-1.88-5.16-2.74-7.55-1.4a2.78 2.78 0 0 1-1.08.46c-1 .07-1.51-1.07-2-1.91-1.62-2.77-5.45-3.65-8.49-2.63s-5.38 3.49-7.15 6.17a13.22 13.22 0 0 0-17.15-5.6c-4.54 2.32-7.23 7.06-9.63 11.56-1.64-5.36-9-7.39-13.91-4.7s-7.29 8.69-7.15 14.3a7.53 7.53 0 0 0-9.93-3.25c-4.08 2.19-5.09 7.49-5.64 12.08-2-2.15-5.86-1.48-7.91.65s-2.73 5.22-3.11 8.16c-1.08 8.46-.25 17.47 4.19 24.76a30.19 30.19 0 0 0 8.09 8.65 43.7 43.7 0 0 1-.91-17.02Z" fill="#ffffff" class="fill-acfddf"></path><path d="M275.1 406.9c.23-1.59 1.73-9.59 4.84-7.17 2.67 2.07 5.88.7 6.31-2.62.46-3.59 4.2-14.27 8.68-7a3.73 3.73 0 0 0 6.89-1.86c.05-3.93 1.09-8.28 4.57-10.59 2.83-1.88 7.79-1.66 9.24 2 1.09 2.74 5.11 3.93 6.75.88 2.2-4.09 4.83-9.48 9.74-10.74a9.75 9.75 0 0 1 10.66 4.77c1.47 2.56 4.83 2.21 6.38 0 1.2-1.72 2.83-3.82 4.93-4.47 2.58-.81 3.56.5 5.14 2.19 2.48 2.68 4.33 2.72 7.66 1.41 1.39-.54 2.9-1.86 2.71-3.56-1.18-10.66-6.05-24.27-19.22-18.64l2.84-.37c.52.17-.83-1.66-1.07-1.91a10.5 10.5 0 0 0-2.64-2 11.54 11.54 0 0 0-6.59-1.11c-5.11.58-8.71 4.3-11.51 8.29h6.38a17.2 17.2 0 0 0-16.8-8.55c-8.13.94-12.78 7.89-16.36 14.52l6.76.88a13.57 13.57 0 0 0-16.8-8c-7.9 2.44-11.43 10.9-11.53 18.55L290 370c-3.08-5-9.55-7.55-15-4.57s-6.74 9.57-7.47 15.27l6.3-2.61c-3.86-3-8.87-3.18-12.65.24-4.31 3.91-4.89 10.5-5.07 16-.42 12.82 4.28 24 14.5 31.8 2.73 2.09 6.13-1.34 5.43-4.17a44.84 44.84 0 0 1-.78-16c.53-4.72-6.86-4.68-7.39 0a50.78 50.78 0 0 0 1 18l5.43-4.18a27.11 27.11 0 0 1-10.45-17.9 41.25 41.25 0 0 1-.24-9.93c.11-1.35 1.33-11.39 5-8.58 2.67 2.07 5.88.7 6.3-2.62.47-3.59 4.21-14.27 8.69-7a3.72 3.72 0 0 0 6.88-1.86c.05-3.93 1.09-8.28 4.58-10.59 2.83-1.88 7.79-1.66 9.23 2 1.09 2.74 5.11 3.93 6.75.88 2.2-4.09 4.84-9.48 9.75-10.74a9.74 9.74 0 0 1 10.65 4.77c1.47 2.56 4.83 2.21 6.38 0s4.56-5.78 7.75-4.57c2.37.89 2.65 3.75 5.3 4.5 3.14.9 5.16-2.19 8 .81 2.49 2.66 3 7.84 3.39 11.22l2.71-3.56c-1.07.42-2.12.86-3.18 1.31l2.85-.37c.52.17-.83-1.66-1.08-1.91a10.33 10.33 0 0 0-2.64-1.95 11.54 11.54 0 0 0-6.59-1.11c-5.1.58-8.71 4.3-11.5 8.29h6.38a17.21 17.21 0 0 0-16.81-8.55c-8.12.94-12.77 7.89-16.35 14.52l6.75.88a13.56 13.56 0 0 0-16.8-8c-7.9 2.44-11.42 10.9-11.52 18.55l6.88-1.87c-3.07-5-9.54-7.55-15-4.57s-6.74 9.57-7.48 15.27l6.31-2.61c-8.56-6.63-15.94 2-17.19 10.44-.71 4.66 6.4 6.66 7.1 1.97Z" fill="#5cd1ff" class="fill-22906c"></path><path d="M331 425.17c-16.57 1.39-36.1 5.05-51.44-3.34-6.89-3.77-11.85-9.23-14.08-16.82a38.44 38.44 0 0 1-1.48-11.48c0-2.46.48-13.22 5.28-9.51 2.58 2 5.42-.84 5.73-3.3.45-3.5 4.08-14.12 8.51-6.93a3.79 3.79 0 0 0 7-1.9c0-3.91 1.08-8.24 4.58-10.5 2.74-1.78 7.56-1.57 8.93 1.95 1.15 3 5.43 4.15 7.19.94 2.18-4 4.8-9.33 9.63-10.52a9.32 9.32 0 0 1 10.15 4.67c1.66 2.91 5.45 2.46 7.2 0 2.26-3.19 5.66-6.05 8.68-2.49 1.82 2.15 3.56 3.64 6.56 3.13 2.46-.42 3.16-1.41 5 1.07 1.15 1.51 1.57 3.81 2 5.62a44.59 44.59 0 0 1 .78 13.19c-1.49 18.8-14.16 31.08-27.42 42.84-2.84 2.52.78 6.72 3.92 5.07 15.77-8.26 28.27-25.06 31.9-42.45 2.62-12.53.32-42.58-19.68-33.62l3.49-.46c1.63.51-.33-1.21-.75-1.64a11.24 11.24 0 0 0-2.82-2 12.09 12.09 0 0 0-6.95-1.13c-5.32.64-9 4.5-11.92 8.69h7.2a17.6 17.6 0 0 0-17.19-8.7c-8.26 1-13 8-16.56 14.76l7.18.94a13.74 13.74 0 0 0-17.06-8c-7.92 2.47-11.45 11-11.56 18.68l7-1.9c-3.09-5.06-9.62-7.62-15.09-4.62s-6.79 9.61-7.54 15.35l6.51-2.69c-3.47-2.7-7.7-3.25-11.57-.78-4.26 2.72-5.59 8.12-6.27 12.79-1.59 10.91 0 22 7.13 30.73 15.88 19.43 47.53 16.52 68.37 8.2 1.84-.73 1.85-4-.52-3.8Z" fill="#1a1c3f" class="fill-1a1c3f"></path><path d="M296.78 418.41c-.45-3.33-.36-7.24 2.1-9.86 2.19-2.35 6.58-3 8.63-.08 1.44 2.09 5.79 1.67 5.41-1.47-.91-7.32 8.72-11.68 11.79-3.83 1.1 2.83 5.43 3.38 6.31 0a27.59 27.59 0 0 1 1.12-3.66 4.66 4.66 0 0 1 .91-1.75q1.05-2.38 4.18-.66a3.15 3.15 0 0 0 6.29 0 7.63 7.63 0 0 0-9.49-7.74c-5.71 1.32-8 7-9.32 12.07H331c-5.61-14.35-26.32-9-23.81 6.34l5.31-2.23a10.87 10.87 0 0 0-14.38-3c-5.74 3.34-6.82 10.45-5.67 16.44.46 2.39 4.64 1.87 4.31-.59Z" fill="#1a1c3f" class="fill-1a1c3f"></path><path d="M687.07 583.09c-8.13-8.08-17.79-14.9-28.78-18.15-17.29-5.12-36.81-.62-51 10.51s-23.08 28.36-25.29 46.26c-1 7.91-.19 17.18 6.23 21.91a8.37 8.37 0 0 0 4.72 1.81c3.38.06 6.24-2.71 7.58-5.8s1.57-6.55 2.22-9.86a38.57 38.57 0 0 1 16.58-24.6c-11.76 9.77-15.29 28.15-8 41.58 2 3.61 4.74 7 8.52 8.56s8.67 1 11.3-2.11c3.67-4.39 1.59-10.9.85-16.58a31.76 31.76 0 0 1 7.86-25.11 72.89 72.89 0 0 0-3.91 21.74 15.69 15.69 0 0 0 .77 6.18c1.08 2.69 3.41 4.65 5.66 6.48 4.89 4 11.72 8.2 17 4.76 4.42-2.86 4.64-9.29 3.32-14.39S659 626 660 620.87c.8-4 3.54-7.37 6.19-10.52l17.51-20.77" fill="#ffffff" class="fill-acfddf"></path><path d="M612.21 596.38c14.19-11.12 33.72-15.63 51-10.51A60.33 60.33 0 0 1 680 594l3.74-4.44 3.34-6.49c-8.13-8.08-17.79-14.9-28.78-18.15-17.29-5.12-36.81-.62-51 10.51s-23.09 28.38-25.3 46.28c-.93 7.34-.29 15.85 4.94 20.82 2.23-17.85 11.11-35.04 25.27-46.15ZM624.22 626.11a38.5 38.5 0 0 0-14.41 17.44 28.09 28.09 0 0 0 1.49 3.2c.4.73.83 1.45 1.29 2.15a33.87 33.87 0 0 1 11.63-22.79ZM644.76 632.45a31.21 31.21 0 0 0-6.1 10.07 26.28 26.28 0 0 0 3 2.8 72.12 72.12 0 0 1 3.1-12.87Z" fill="#a8cdf7" class="fill-ffffff"></path><path d="M688.93 581.23c-10.82-12.29-25-21.14-41.53-22.86-16.29-1.69-33 4.64-45.41 15-12.11 10.18-20.23 24.74-23.48 40.15-1.51 7.19-2.46 15-.38 22.17 1.85 6.36 6.78 13.19 13.94 13.68 9.32.63 12.71-8.76 13.73-16.31a35.17 35.17 0 0 1 15.27-24.9l-4.27-5.53c-14.71 12.75-19.68 41.44-2.11 54.35 8.17 6 20.7 3.16 22.29-7.76.79-5.37-1.36-10.5-1.5-15.83a28.34 28.34 0 0 1 7-19.24l-6.35-3.69a79.92 79.92 0 0 0-3.89 19c-.41 5.38-.43 10.7 3.11 15.08 5.53 6.85 17.23 15 26 9.53 10.27-6.33 4.3-18.61 2.4-27.4-1.57-7.19 2.7-13.27 7.42-18.22 5.13-5.38 9.83-11.15 14.64-16.81 2.55-3-1.8-7.34-4.32-4.33-6.8 8.14-13.23 16.69-20.34 24.51-6.68 7.33-5 14.86-2.7 23.68.84 3.27 2 8.8-1 11.41-3.68 3.17-10.17-2-13-4.33-4.66-3.79-5-7.38-4.61-13.12a72.48 72.48 0 0 1 3.55-17c1.15-3.51-3.87-6.57-6.34-3.69a36.79 36.79 0 0 0-9.05 22.28c-.28 5.35 5.27 25.24-6.65 20.41-7.68-3.12-10.23-14.74-9.93-22.06a30.42 30.42 0 0 1 10.35-21.74c3-2.61-.95-7.8-4.26-5.53a43.08 43.08 0 0 0-15 17.23 51.62 51.62 0 0 0-3.61 11.12c-.79 3.65-2.7 14.86-8.82 9.26-5.48-5-4.14-14.87-2.82-21.34a72.46 72.46 0 0 1 9.11-23.17c8.67-14.29 23-24.53 39.62-27.06 18.89-2.87 35 4.85 49.18 16.78a2.63 2.63 0 0 0 3.72-3.72Z" fill="#1a1c3f" class="fill-1a1c3f"></path><path d="M100.34 457.59c-7.53-27.62 6.28-59.56 31.56-73 35.9-19.07 73.92-8.58 94.24 26.2 2.6 4.45 4.65 10.62 1.05 14.3-2.68 2.74-7.14 2.5-10.85 1.57-13.59-3.41-24.58-13.13-35-22.52a88.32 88.32 0 0 1 12.94 30.33c1.38 6.34 1.11 14.65-4.84 17.25-5.58 2.44-11.62-2.19-15.61-6.8a109.12 109.12 0 0 1-19.1-31.6 123.73 123.73 0 0 1 11 35.44c.73 4.88.62 11-3.68 13.38-3.52 2-8 .27-11.2-2.19-9.84-7.59-13-20.88-14.77-33.18-7.08 15.37-32.26 18.47-34.6 35.22" fill="#fcfffe" class="fill-3fc091"></path><path d="M225.88 426.12c-20.75-32.12-57.48-41.34-92.21-22.89-19.52 10.37-32.19 31.77-33.49 53.7.06.22.1.44.16.66l1.13 4.4c2.34-16.75 27.52-19.85 34.6-35.22 1.77 12.3 4.93 25.59 14.77 33.18 3.19 2.46 7.68 4.17 11.2 2.19a7.54 7.54 0 0 0 3.49-4.8 124 124 0 0 0-5.46-17.34 110 110 0 0 0 5.86 10.51c-.05-.6-.13-1.19-.21-1.76a124.23 124.23 0 0 0-7.42-27.38 109.53 109.53 0 0 0 15.55 23.54c4 4.61 10 9.24 15.61 6.8a8.71 8.71 0 0 0 4.75-5.66 88.21 88.21 0 0 0-11.08-23.29c3.44 3.1 6.94 6.24 10.57 9.17a88.19 88.19 0 0 0-12.34-27.8c10.4 9.39 21.39 19.11 35 22.52 3.14.8 6.83 1.09 9.52-.53Z" fill="#5cd1ff" class="fill-22906c"></path><path d="M102.71 456.94c-6.43-30.58 11.88-61.78 40.86-72.42 13.79-5.06 28.41-5.93 42.38-1 14.13 4.93 25.75 15 33.91 27.43 1.6 2.43 6.76 9.46 2.37 11.31-3.67 1.54-10.79-2.1-13.95-3.65-8.94-4.39-16.4-11-23.73-17.61-3.63-3.28-10 1-7.08 5.46a86.45 86.45 0 0 1 10.69 22.51c1.28 4.22 5 14.94 0 18.3-6 4.06-15.06-10.27-17.6-14a108.35 108.35 0 0 1-11.4-21.18l-8.43 3.55a122.25 122.25 0 0 1 8 22.18c1 3.8 5.47 16.79 1.32 20-5.36 4.11-13-8.69-14.6-12.24-2.84-6.27-4.12-13.2-5.16-20-.58-3.76-6.56-4.36-8.16-1.07-7.82 16-31.87 17.94-34.42 37.47-.53 4.1 6.34 5 7.2 1 1.84-8.55 9.55-13 16.44-17.26s14.7-9.14 18.49-16.68l-8.07-1.04c1.37 9.68 3.43 19.77 9.11 28 4.79 6.89 13.89 14.75 22.79 10.48 8.48-4.06 7.27-14.7 5.9-22.35A131 131 0 0 0 158.73 411c-2.2-4.66-10.37-1.32-8.42 3.55a117.38 117.38 0 0 0 16.55 29.07c5.58 7.13 14.82 17.11 24.91 12.06 7.8-3.91 8.53-13.57 7.15-21.2-2.09-11.58-7.22-22.83-13.67-32.61l-7.07 5.46c8 7.25 16.31 14.83 26 19.81 7.78 4 19.93 8.75 27 1 7.24-7.88.42-19.44-4.45-26.55a77.35 77.35 0 0 0-19.89-20c-30.42-21-77-12-98.58 17.58-12.33 16.85-16.54 39-10.32 59a2.45 2.45 0 0 0 4.73-1.3Z" fill="#1a1c3f" class="fill-1a1c3f"></path><path d="M200.54 850.11c-9.95 21.15-23.21 40.06-41.55 54.79a138.21 138.21 0 0 1-14.4 10c-4.53 2.76-9 5-10.26 10.53-1.44 6.3-1.13 13.4-1.5 19.84q-.65 11-1.43 22c-.24 3.42 4.87 3.28 5.26 0 .82-7 1.66-14 2.57-21.06.41-3.19.83-6.38 1.21-9.57.43-3.58.06-9 2.9-11.44 2.07-1.79 5.07-2.92 7.38-4.41 2.16-1.41 4.29-2.88 6.36-4.41a143.15 143.15 0 0 0 12.72-10.47c15.74-14.6 28.63-33.37 35.07-54 .78-2.51-3.17-4.28-4.33-1.82ZM430.49 843.23a138.44 138.44 0 0 0 10.89 27.31c5 9.07 11.46 15.6 19.27 22.21 8.77 7.42 10.63 18.81 12.14 29.66 1.79 12.87 2.86 25.75 4 38.69.26 2.93 4.76 3 4.65 0-.46-12.84-1.69-25.7-3.05-38.47-1.09-10.25-.75-21.45-7.51-29.92-3.27-4.1-7.77-6.82-11.64-10.29a63.4 63.4 0 0 1-10.56-12.48c-5.83-8.84-9.83-18.78-14.31-28.34-1-2.17-4.52-.63-3.85 1.63Z" fill="#ffffff" class="fill-acfddf"></path><path d="M519.91 837.3a2 2 0 0 0 0-3.95c-2.54 0-2.54 3.95 0 3.95Z" fill="#5cd1ff" class="fill-22906c"></path><path d="M519.93 838.08c15.11-.64 29.91-8.25 38.19-21.11 1.86-2.89-2.59-5.35-4.54-2.65-8.06 11.17-19.73 18.41-33.65 19.28-2.85.18-2.89 4.6 0 4.48ZM531.58 893.07c1.37-12.26 7.62-24.61 20.76-27.07 11.73-2.2 22.86 4.47 25.85 16.08 2.95 11.45-3.37 22.17-14.16 26.45s-22.07 1.6-28.92-7.82c-1.77-2.43-6.48-1.11-5.28 2.22 3.63 10.06 16.07 14.44 26 13.75 11.26-.8 22.53-7.25 27.15-17.86C587.25 889 585.06 877 578 869c-7.43-8.46-20.08-10.88-30.5-7.18-13.31 4.74-19.23 18.06-20.4 31.28-.25 2.89 4.16 2.82 4.47 0ZM517.17 946.09c4.29-4.26 11.07-1.78 14.23 2.59s4 10.31 4.9 15.63c.51 3.12 5.2 1.77 4.73-1.31-1.14-7.48-2.94-16.3-9.79-20.75-5.25-3.41-12.38-3.71-16.87 1-1.74 1.85 1 4.59 2.8 2.8ZM601.94 965.32c-8.34-16 10-27.75 23.3-30.57 7-1.5 15.12-1.83 20.26 4.08 5 5.76 7.2 13.87 7.36 21.35.09 4.1 6.43 4.11 6.38 0-.12-9.56-3.26-20-10.37-26.73-6.82-6.49-16.55-6.19-25.14-4.16-8.8 2.08-18 6.17-23.42 13.75-5.08 7.1-6.23 16.62-1.78 24.28 1.28 2.21 4.58.25 3.41-2ZM662.17 845.32c-12.28.19-25 5-32.25 15.35-7 9.9-7.73 24.54-.31 34.4 6.82 9 18.89 12.56 29.8 10.6 12.21-2.2 22.07-11.56 27.45-22.4 3.12-6.28 5.86-13.83 3.33-20.75-2.47-6.75-8.42-11.28-14.33-14.9-2.68-1.64-6 2.43-3.45 4.47 4.69 3.7 11.06 7.91 12.32 14.17s-3 13.92-6.34 19c-6.9 10.26-18.75 17-31.25 14.06-12.73-3-19.23-15.31-15.8-27.71 3.78-13.64 17.49-21 30.83-21.86 2.8-.17 2.85-4.43 0-4.38ZM593.43 825.72A23.89 23.89 0 0 0 621 830c2.58-1.27.32-5.15-2.26-3.86a19.37 19.37 0 0 1-22.31-3.49c-2-1.92-5 1.1-3 3ZM727.47 904.91c-24.69 5.63-24.14 40.09-3.91 50.94 10.07 5.41 22.72 5.26 32.35-1 9-5.86 14.87-16.21 13.26-27.07a26.37 26.37 0 0 0-7.75-15.13 22.64 22.64 0 0 0-7-4.57c-3.39-1.4-7.5-1.52-9.91-4.56-2.27-2.87-6.27 1.18-4 4 3.23 4.09 8.22 4 12.61 6.16a19.48 19.48 0 0 1 9.88 12.57c3.14 12-5.66 23.57-17 26.78s-24.9-2.16-30-13.2c-5.37-11.75-.31-27 12.51-31a2 2 0 0 0-1.08-3.9ZM744.54 828.37a21.13 21.13 0 0 0-7.91 27.81c5.42 10.36 19.67 17.63 30.86 19.26 13.35 1.94 22.61-10.22 27.32-21.17 4.38-10.17 2.8-26.46-11-27.61-3.38-.28-3.85 4.84-.78 5.76 11.83 3.52 8.37 16.78 3.68 24.78-5.28 9-12.19 15-23.08 11.58-7.58-2.41-16.27-6.35-21.06-13a17.39 17.39 0 0 1 3.9-24.1c2-1.43.2-4.68-2-3.33ZM837.62 881.36c-12.42 5.73-26.57 14.18-25 30a33.45 33.45 0 0 0 10.7 20.73c5.55 4.92 12.86 5.39 19.8 3.67 14.48-3.57 27.53-14.89 29.09-30.32 1.4-13.77-9.38-28.86-24.35-27.24-3.88.42-4.09 6.19 0 6.2 12.17 0 20.18 10.69 18 22.55s-13 20.22-24.27 23.08c-7 1.77-12.74.29-17.25-5.51-3.85-5-6.65-11.21-6-17.6 1.19-11.32 12.32-17.26 21.37-22 2.39-1.24.29-4.66-2.08-3.56ZM855 816.77c.29 10.84 7.83 21.37 18.77 23.66 10.65 2.22 21.57-3.1 26.93-12.42 2-3.42-3.37-6.53-5.28-3.09-9.35 16.82-34.56 11-35.95-8.15-.2-2.84-4.55-2.91-4.47 0ZM899.52 965.83c1.79-13.15 13.49-19.74 25.91-16.64 3.71.93 5.07-4.37 1.56-5.65-15.33-5.56-30.38 6.34-31.86 21.69-.24 2.49 4 3.1 4.39.6Z" fill="#5cd1ff" class="fill-22906c"></path><path d="M529 434.17c-2.84 6.85-5.19 13.81-7.34 20.9-1.89 6.24-4.69 13.28-3.71 19.85.43 2.83 5.05 3.37 6.23.81 2.74-6 2.43-13.48 3.68-19.9a170.09 170.09 0 0 1 5.54-20.45c.94-2.86-3.31-3.84-4.4-1.21Z" fill="#1a1c3f" class="fill-1a1c3f"></path><path d="M847.88 663.16q.42 39.72.92 79.43c.08 6.62.09 13.23.08 19.85 0 3.72-.56 8.13 3.52 9.89 2.19.94 3.76.33 4.51 3 .59 2-.23 4.33-.93 6.24-1.89 5.15-4.52 9.89-2.66 15.46 1.61 4.82 8.29 2.81 7.49-2.06-.91-5.5 3.15-10.09 3.78-15.4.43-3.56-.1-7.61-2.45-10.46a8.93 8.93 0 0 0-4-2.84c-.3-.1-2.47-.36-2.19-.13a17.85 17.85 0 0 1-.36-3.7c-.33-6.61-.64-13.23-.87-19.85q-1.41-39.72-2.91-79.43c-.09-2.53-4-2.55-4 0ZM435.81 357.05a49.14 49.14 0 0 1-4.56-86.05c1.32-.81 2.76-1.64 3.46-3a8.28 8.28 0 0 0 .59-3.54 81 81 0 0 1 1.51-13.63c1.28-6.46 4.44-13.79 10.9-15 4.74-.91 9.44 2 12.63 5.62s5.4 8 8.61 11.62a8.57 8.57 0 0 0 3.81 2.75 10.2 10.2 0 0 0 3.74.12l39.08-3.65c1.86-7.13 8.38-15.13 14-19.89s11.25-4.8 14.36 1.88c1.74 3.74 5.92 17.3 6.44 21.39 1.61 12.55 14.84 13 19.51 24.74 10.1 25.5 2.19 53.16-19.8 69.43-13.83 10.16-31.09 15.02-48.22 16.34s-34.39-.7-51.42-3.12" fill="#ffffff" class="fill-acfddf"></path><path d="M472.76 255.74A8.57 8.57 0 0 1 469 253c-3.21-3.6-5.43-8-8.61-11.62s-7.89-6.53-12.63-5.62c-6.46 1.23-9.62 8.56-10.9 15a81 81 0 0 0-1.51 13.63 8.28 8.28 0 0 1-.59 3.54c-.7 1.39-2.14 2.22-3.46 3a49.14 49.14 0 0 0 4.56 86.08l.44.19a65 65 0 0 0 15.87-6.31 102.49 102.49 0 0 0 32.48-27.71c4.19-5.46 8-12.41 5.77-18.93 3.08.19 4.93-3.31 5.84-6.26a112.11 112.11 0 0 0 4.28-44.41l-24 2.24a10.2 10.2 0 0 1-3.78-.08Z" fill="#fcfffe" class="fill-3fc091"></path><path d="M437.11 354.82c-24.16-13.44-32.39-45.62-16.23-68.37 4.11-5.79 9.39-8.94 14.71-13.31 5.61-4.61 3.86-12.82 5-19.31 1-5.71 3.63-16.42 11.63-13.3 6.8 2.65 9.35 11.22 14.28 16.06 6 5.91 15.26 3.07 22.8 2.37l26.3-2.44a4.48 4.48 0 0 0 4.15-3.16c2.1-7 8-15.34 14.43-19.06 6-3.46 7.63 6.29 8.91 10.43 1.66 5.35 2.24 11.49 4.47 16.59 2.75 6.31 8.6 9.49 13.28 14.15 18.65 18.58 8.88 51.27-7.84 67.49-13.35 13-33.07 18.3-51.11 20-4.09.38-4.18 6.77 0 6.46 19-1.4 38.5-6.79 53.22-19.44 11.15-9.58 18.8-23.86 22.12-38.06 3.37-14.37 1.42-29.41-8.54-40.78-2.63-3-5.85-5.21-8.8-7.84-3.38-3-4.65-5.84-5.54-10.18a111.11 111.11 0 0 0-5.69-18.81c-3.27-8.21-10.7-12.28-18.84-7.46-8.37 5-15.63 15-18.38 24.23l4.16-3.17-26.3 2.47c-4.47.42-9.25 1.4-13.72 1.25-4.11-.13-6.43-5.52-8.59-8.59-4.33-6.13-10.33-12.21-18.47-11.64-6.6.47-11.15 5.48-13.63 11.24a40.87 40.87 0 0 0-2.68 9.9c-.63 3.91.17 11.07-2.14 13.93-2.19 2.7-6.33 4.53-8.95 7a55.62 55.62 0 0 0-7.11 8.14c-8.67 11.95-12.31 27.68-9.08 42.15 3.52 15.78 15 29 29.59 35.58 3 1.33 5.58-2.81 2.61-4.46Z" fill="#1a1c3f" class="fill-1a1c3f"></path><path d="M458.44 263.08c11.48-1.86 23-3.09 34.6-4.16q8.15-.76 16.31-1.16c5.2-.25 11.2-1.68 16.33-.78 2.55.44 4.38-3 1.85-4.41-4-2.26-9.95-1.54-14.34-1.43-6.4.16-12.82.73-19.19 1.34a303.54 303.54 0 0 0-36.79 6.12c-3 .65-1.66 4.94 1.23 4.48ZM470.43 295.73c-2.62-.35-5.13.21-6.68 2.53a5.77 5.77 0 0 0 .73 7.33 5.06 5.06 0 0 0 8.63-3.77 4.28 4.28 0 0 0-3-3.88c-2.25-.95-4.61 1.8-3.92 3.92v-.26c.11 1.11.15 1.22.13.34a1.43 1.43 0 0 1 .94-1.51c.71-.39 1.77-.44 2.09.51 0 0 0 .82-.07.71s.42-.67.51-.79c-.22.28.34-.33.41-.38a5.61 5.61 0 0 1 .8-.58c1.46-.94 1.55-3.88-.54-4.17ZM525.68 292.94a7 7 0 0 0-6.68 1.43 5.66 5.66 0 0 0-.13 7.77 5.13 5.13 0 0 0 7.47.13c2.24-2.47 1.75-6.55-1.69-7.59a3.18 3.18 0 0 0-3.87 3.87q.13-2.26-.09-.27a2.17 2.17 0 0 0 0 .44c-.25-.16.36-1.09.51-1.25.76-.76 2.55-.92 2.69.47a.7.7 0 0 1 0 .43c.11-.36.11-.38 0-.07l.29-.51c-.15.17-.15.18 0 0a3.61 3.61 0 0 1 1.53-.56c2.2-.42 2.06-3.81 0-4.31ZM498.17 311.85c-2.46-1-7.27-1-8.23 2.14-1.11 3.69 3.78 5.64 6.64 5.71 3.05.06 6.73-2.13 6.78-5.49a4 4 0 0 0-3-3.83 4.48 4.48 0 0 0-4.9 2 2.93 2.93 0 0 0 .23 3.3 3.1 3.1 0 0 0 3.13 1.07 6 6 0 0 0 .61-.12q.63-.14-.45-.09l-1.39-.81-.1-.17-.39-1.56c0-1.51.64-.52-.14-.48a1.8 1.8 0 0 1-.62 0 4.69 4.69 0 0 1-2-.81l1.06 1.06-.2-.25.4 1.47v-.28l-.85 2.05a5.82 5.82 0 0 1 2.85-.91 2.07 2.07 0 0 0 .55-4Z" fill="#1a1c3f" class="fill-1a1c3f"></path><path d="M477.91 324c-.37 5.77 5.35 8.78 10.53 8 6.39-1 9.81-6.3 10.6-12.28h-5.74c-.66 5.56-2.74 12.69 3.71 15.55 4.43 2 10.24.76 12.34-3.86a2.12 2.12 0 0 0-3.31-2.56c-2.58 2.2-6.84 2.21-7.5-1.73-.37-2.21.34-5.17.5-7.4.26-3.69-5.44-3.65-5.74 0a7.92 7.92 0 0 1-3.64 6.53c-2.32 1.34-7.49 1.58-7.71-2.26a2 2 0 0 0-4 0ZM455.21 291.41a73.92 73.92 0 0 1 13.51-2.75c3.15-.39 3.35-5.22 0-5.08a38.12 38.12 0 0 0-15.1 4.06c-2.11 1-.63 4.49 1.59 3.77ZM536.63 282.4a10.83 10.83 0 0 0-6.72-2.5c-3.25-.23-7.34-.21-10.43.91s-2.57 5.48.76 5.58c2.46.08 4.93-.55 7.38-.72 1.87-.13 4.7-.83 6.46 0 2 1 4.44-1.62 2.55-3.31Z" fill="#1a1c3f" class="fill-1a1c3f"></path><path d="M449.55 385.61a31.58 31.58 0 0 1 20.34 4.47c5.65 3.65 9.31 9.24 9.89 15.08.45 4.63-1 9.24-2.53 13.71-3.28 9.34-12.67 24-27.46 22.48-19.72-2-17.13-27.57-7-36.15" fill="#ffffff" class="fill-acfddf"></path><path d="M449.55 387.63c14.09-.17 29.05 9.21 24.83 24.92-2.34 8.7-7.71 19-16.45 22.68-7.63 3.23-16.48.11-18.06-8.41-1.45-7.79 2-13.6 6.35-19.61 2.42-3.39-2.2-7.24-5.43-5.43-7.14 4-10.26 14.91-10.32 22.52-.07 9.15 4.61 17.91 13.6 20.92 10.94 3.68 22.22-1.33 29.3-9.82s13.19-22.32 10.4-33.44c-3.78-15.12-21-20.64-34.76-18.3-2.27.38-1.7 4 .54 4Z" fill="#1a1c3f" class="fill-1a1c3f"></path><path d="M511.61 377.22a34.69 34.69 0 0 0 11.1 58.78c4.12 1.48 8.85 2.13 12.79.23a13.74 13.74 0 0 0 6-6.12c3.74-7.19 2.26-16.07-1.14-23.42-2.73-5.9-6.59-11.2-10.42-16.45" fill="#ffffff" class="fill-acfddf"></path><path d="M510.09 375.7c-20.4 17-17.33 49.9 6.43 62.38 11.93 6.27 26.19 4.63 30.41-9.78 4.47-15.23-6.21-28.05-13.91-39.88-2.79-4.27-8.93.26-5.62 4.34 6.36 7.83 13.09 18.58 12 29.13-.55 5.24-3.55 10.74-9.4 10.95-4.7.17-9.58-2.31-13.31-5-16.18-11.62-17.41-35.15-3.55-49.11 2-2-1-4.78-3-3Z" fill="#1a1c3f" class="fill-1a1c3f"></path><path d="M443.71 423.72a3 3 0 0 0 .84-.15l.68-.3.52-.25a3.73 3.73 0 0 0 .74-.53 1.29 1.29 0 0 0-1.26-2.16 4.4 4.4 0 0 0-.77.34c-.18.11-.35.25-.53.38l-.47.34a3.57 3.57 0 0 0-.66.74 1.06 1.06 0 0 0 .91 1.59ZM447.79 430.43a33.36 33.36 0 0 0 3.25-3.15 1.38 1.38 0 1 0-2-1.95 36.66 36.66 0 0 0-3 3.77c-.78 1 .85 2.13 1.72 1.33ZM454.62 433.27c.25-.39.51-.74.73-1.16a8.61 8.61 0 0 1 .74-1.18 1.29 1.29 0 0 0-2.23-1.3 10.84 10.84 0 0 0-.73 1.39 4.41 4.41 0 0 0-.32 1.77 1 1 0 0 0 1.81.48ZM522.11 425a10.46 10.46 0 0 0 .89 2.48 1.19 1.19 0 0 0 2.16-.91 10.2 10.2 0 0 0-1.16-2.37 1 1 0 0 0-1.89.8ZM527.37 422.48a4.14 4.14 0 0 0 2 3.56 1.3 1.3 0 0 0 1.57-2 3.91 3.91 0 0 1-1.14-1.86 1.23 1.23 0 0 0-2.41.33ZM532.37 417.7a4.62 4.62 0 0 1 1 2.11c.3 1.43 2.63.81 2.2-.6a6.92 6.92 0 0 0-1.76-2.94c-.94-.92-2.26.45-1.43 1.43Z" fill="#fcfffe" class="fill-3fc091"></path></svg>